<?xml version="1.0" encoding="UTF-8" standalone="no"?>
<svg id="svg" xmlns="http://www.w3.org/2000/svg" display="block" height="400" width="400" version="1.1" xmlns:xlink="http://www.w3.org/1999/xlink">
 <g id="svgg" fill-rule="evenodd" fill="#fff">
  <path id="path0" d="m224.8 11.558c-1.54 0.611-7.12 2.42-12.4 4.02s-11.04 3.397-12.8 3.994c-1.76 0.596-6.98 2.228-11.6 3.625-8.75 2.647-17.58 5.382-24.4 7.565-11.44 3.659-17.36 5.464-22.8 6.943-3.3 0.899-6.36 1.913-6.8 2.254s-1.7 0.837-2.8 1.101c-3.9 0.937-3.92 1.179-4.8 44.309-0.45 22.351-1.03 45.441-1.3 51.311l-0.47 10.69-3.72 1.56c-2.04 0.85-5.19 2.26-7 3.11-1.81 0.86-3.58 1.56-3.95 1.56-0.36 0-2.12 0.7-3.91 1.54-1.79 0.85-6.67 2.87-10.85 4.48-4.18 1.62-9.11 3.62-10.956 4.46s-3.545 1.52-3.776 1.52c-0.232 0-2.388 0.9-4.793 2s-4.579 2-4.832 2-1.987 0.68-3.852 1.52-6.562 2.72-10.437 4.2l-7.046 2.68-8.496 17.2c-4.673 9.46-13.863 28.18-20.422 41.6s-12.435 25.36-13.058 26.52c-1.646 3.09-1.427 6.07 0.523 7.11 1.78 0.95 10.345-1.15 10.345-2.54 0-0.38 0.555-0.69 1.233-0.69 0.679 0 3.469-1.04 6.2-2.3 2.732-1.27 5.867-2.56 6.967-2.88s2.72-1.02 3.6-1.55 3.4-1.63 5.6-2.44c2.2-0.82 4.18-1.7 4.4-1.96 0.22-0.27 2.38-1.17 4.8-2.01s5.12-1.97 6-2.51 2.5-1.24 3.6-1.56c1.925-0.56 8.192-3.23 13.2-5.62 1.32-0.63 3.989-1.7 5.931-2.37s3.922-1.52 4.4-1.89 2.774-1.34 5.101-2.16l4.233-1.49 4.167 4.71c2.288 2.59 6.148 6.92 8.568 9.62s6.74 7.57 9.6 10.83 6.1 6.89 7.2 8.08c1.1 1.18 3.8 4.2 6 6.71s4.38 4.98 4.84 5.48c1.61 1.74 8.79 9.82 13.96 15.7 2.86 3.25 5.92 6.68 6.8 7.62s3.71 4.12 6.28 7.06c2.58 2.95 5.38 5.73 6.23 6.19 1.57 0.84 12.7-0.84 16.29-2.46 0.88-0.4 4.66-1.3 8.4-2s7.52-1.6 8.4-2 4.66-1.3 8.4-2 7.52-1.6 8.4-2 4.66-1.3 8.4-2 7.52-1.6 8.4-2 4.66-1.3 8.4-2 7.52-1.6 8.4-2 4.66-1.3 8.4-2 7.52-1.6 8.4-2 4.66-1.3 8.4-2 7.52-1.6 8.4-1.99 3.33-1.06 5.44-1.47l3.83-0.76 28.04 33.71c15.42 18.54 29.53 35.49 31.36 37.68 1.83 2.18 4.7 5.6 6.37 7.6 1.67 1.99 3.83 4.54 4.8 5.65s4.41 5.3 7.64 9.31c7.16 8.86 9.04 10.11 11.51 7.64l1.73-1.74 0.59-65.01 0.59-65.02-2.49-2.09c-1.37-1.15-3.78-2.77-5.35-3.59-1.57-0.83-3.05-1.76-3.28-2.06-0.23-0.31-1.31-1.05-2.4-1.64-2.71-1.48-10.07-5.88-14.16-8.48-3.02-1.91-13.16-8.18-17.42-10.77-0.88-0.53-3.15-1.96-5.04-3.17s-3.71-2.2-4.04-2.2c-0.34 0-1.85-0.93-3.36-2.07-1.52-1.14-3.48-2.4-4.36-2.81-0.88-0.42-3.13-1.74-4.99-2.94-7.55-4.86-14.61-8.98-15.39-8.98-0.45 0-0.82-0.27-0.83-0.6 0-0.33-2.49-2.03-5.52-3.78l-5.52-3.18 1.63-3.19c0.9-1.76 2.26-4.11 3.02-5.23 0.76-1.11 2.51-3.82 3.87-6.02 1.37-2.2 2.82-4.39 3.22-4.88 0.41-0.48 1.32-2 2.03-3.37 1.14-2.2 3.2-5.48 6.23-9.89 0.84-1.23 1.15-1.18 3.77 0.6 1.57 1.07 3.31 1.94 3.87 1.94 0.55 0 1.01 0.32 1.01 0.7 0 1.13 4.42 2.65 6.86 2.36 2.35-0.27 6.09-5.73 7.17-10.46 0.27-1.21 0.83-2.2 1.23-2.2 0.41 0 0.74-0.39 0.74-0.86 0-0.78 1.45-4.04 7.6-17.14 4.74-10.08 6.8-14.8 6.8-15.57 0-0.45 0.36-0.83 0.8-0.83s0.8-0.34 0.8-0.75c0-0.42 1.48-3.93 3.28-7.8 1.8-3.88 4.11-8.85 5.12-11.05 1.02-2.2 3.36-7.24 5.21-11.2 6.42-13.717 7.86-16.826 10.39-22.4 1.4-3.08 3.41-7.381 4.47-9.557s1.93-4.426 1.93-5 0.36-1.043 0.8-1.043 0.8-0.377 0.8-0.837 1.31-3.61 2.92-7c3.66-7.73 4.05-12.423 1.08-12.85-2.1-0.302-12.63 1.326-14 2.165-0.78 0.476-9.86 2.541-25.2 5.73-4.18 0.869-8.14 1.819-8.8 2.112-0.66 0.292-4.98 1.376-9.6 2.41-4.62 1.033-12.18 2.747-16.8 3.808-4.62 1.062-12.36 2.828-17.2 3.925s-12.76 2.936-17.6 4.085c-4.84 1.15-12.58 2.946-17.2 3.991-9.33 2.11-23.32 5.432-28.71 6.816-1.92 0.495-3.64 0.758-3.82 0.584-0.29-0.294 1.02-21.296 3.02-48.441 0.69-9.396 0.65-11.694-0.22-12.548-1.71-1.673-4.85-1.989-7.87-0.792m0.4 17.842c-0.32 5.61-0.74 11.28-0.96 12.6-0.21 1.32-0.84 9.174-1.39 17.452-1.17 17.355-0.78 16.571-9.25 18.559-3.3 0.774-6.36 1.671-6.8 1.994-0.44 0.322-2.66 1.021-4.93 1.554-5.96 1.396-2.71-3.997-30.48 50.641-4.64 9.13-8.76 16.6-9.15 16.6s-1.68-0.66-2.87-1.48c-2.08-1.41-6.12-3.97-10.74-6.79-2.34-1.43-5.44-1.74-6.67-0.66-1.22 1.07-8.42 3.54-8.9 3.06-0.24-0.25-0.04-18.02 0.46-39.49 0.49-21.471 0.89-42.83 0.89-47.463l-0.01-8.423 5.8-1.475c3.19-0.811 6.16-1.744 6.6-2.072 0.44-0.329 2.78-1.047 5.2-1.597s5.48-1.479 6.8-2.064 4.74-1.654 7.6-2.376 5.56-1.588 6-1.925c0.44-0.336 3.31-1.229 6.38-1.984 3.08-0.754 5.96-1.66 6.4-2.012 0.45-0.352 2.8-1.089 5.22-1.639s5.48-1.479 6.8-2.064 4.74-1.654 7.6-2.376 5.56-1.592 6-1.932c0.44-0.341 3.41-1.248 6.61-2.017 3.19-0.768 6-1.717 6.24-2.109 1.64-2.641 2.07 0.028 1.55 9.488m155.6 18.2c0 0.66-0.36 1.2-0.8 1.2s-0.8 0.335-0.8 0.744c0 0.756-2.81 7.132-7.61 17.256-1.46 3.08-3.99 8.48-5.61 12-1.63 3.52-4.39 9.46-6.14 13.2s-3.84 8.24-4.65 10c-1.73 3.78-6.89 14.88-11.35 24.4-3.27 6.99-4.28 9.17-8.65 18.8-10.52 23.18-9.12 21.39-14.15 18.06-2.04-1.35-4.19-2.46-4.78-2.46-0.58 0-1.06-0.3-1.06-0.66s-3.87-3.23-8.6-6.38c-4.73-3.14-10.62-7.08-13.08-8.74-2.47-1.66-5.04-3.38-5.72-3.82s-6.04-4.04-11.92-7.99c-5.87-3.96-11.28-7.56-12-8-0.73-0.45-7.75-5.16-15.6-10.48-7.86-5.32-15.72-10.64-17.48-11.81-1.76-1.18-3.74-2.51-4.4-2.953-0.66-0.442-3.36-2.231-6-3.975-2.64-1.745-5.16-3.458-5.6-3.808-0.44-0.349-2.15-1.463-3.8-2.475-3.81-2.336-3.99-2.099 2.8-3.732 3.19-0.768 6.16-1.664 6.6-1.993 0.44-0.328 3.5-1.187 6.8-1.908s6.72-1.632 7.6-2.024 4.84-1.298 8.8-2.014 7.92-1.616 8.8-2 4.84-1.284 8.8-2 7.92-1.616 8.8-2 4.8-1.298 8.71-2.031c3.91-0.734 7.69-1.64 8.4-2.014s4.53-1.26 8.49-1.969c3.96-0.708 7.92-1.602 8.8-1.986s4.84-1.284 8.8-2 7.92-1.632 8.8-2.035 4.78-1.307 8.68-2.008c3.89-0.701 7.67-1.591 8.4-1.978 0.72-0.387 4.56-1.284 8.52-1.993 3.96-0.708 7.92-1.605 8.8-1.992s5.02-1.323 9.2-2.08c4.18-0.756 7.96-1.65 8.4-1.987 0.72-0.554 3.18-1.171 5.8-1.456 0.55-0.06 1 0.431 1 1.091m-174.19 48.4c2.46 1.76 4.85 3.2 5.33 3.2 0.47 0 0.86 0.366 0.86 0.81 0 0.45 1.26 1.42 2.8 2.15 1.54 0.74 2.8 1.57 2.8 1.86s1.44 1.21 3.19 2.05c1.76 0.84 3.2 1.79 3.2 2.11 0.01 0.32 1.18 1.18 2.61 1.91s2.78 1.57 3 1.85c0.29 0.39 49.7 33.61 61.46 41.34 0.74 0.48 3.45 2.28 6.02 4 2.58 1.72 5.52 3.68 6.55 4.36 2.19 1.45 2.53 0.6-5.23 12.9-2.86 4.54-5.38 8.61-5.6 9.06-0.22 0.44-1.39 2.32-2.6 4.18s-2.2 3.76-2.2 4.2c0 0.45-0.32 0.82-0.7 0.82-0.39 0-1.14 1.04-1.66 2.31-0.53 1.26-2.01 3.31-3.3 4.55-1.29 1.23-2.34 2.57-2.34 2.97 0 0.41-0.81 1.74-1.8 2.97s-3.17 4.25-4.84 6.71l-3.04 4.47-2.16-1.46c-1.19-0.81-3.6-2.36-5.36-3.46-1.76-1.09-4.82-3.01-6.8-4.26-5.72-3.62-8.85-5.58-14.22-8.9-2.76-1.7-6.44-4-8.18-5.1-2.66-1.68-11.08-6.89-17.19-10.63-0.87-0.53-3.09-1.96-4.94-3.17s-3.55-2.2-3.77-2.2c-0.23 0-2.02-1.08-3.98-2.4-1.95-1.32-3.95-2.4-4.44-2.4-0.48 0-0.88-0.3-0.88-0.66 0-0.37-0.99-1.18-2.2-1.8-1.21-0.63-3.69-2.13-5.52-3.34-1.82-1.21-3.68-2.2-4.13-2.2s-0.94-0.28-1.08-0.61c-0.15-0.34-2.97-2.23-6.27-4.19-3.3-1.97-6.36-3.86-6.8-4.22-0.44-0.35-1.47-1.1-2.29-1.66-1.45-1-1.45-1.11 0.09-4.17 1.62-3.24 17.85-34.9 21.9-42.75 1.26-2.42 2.28-4.85 2.29-5.4s0.32-1 0.7-1c0.39 0 1.45-1.8 2.36-4 2.01-4.83 2.65-4.891 8.36-0.8m-64.98 53c0.01 0.11 0.57 3.8 1.24 8.2s2.02 13.94 3.02 21.2c0.99 7.26 2.03 13.74 2.31 14.4 0.27 0.66 1.07 6.6 1.78 13.2 0.7 6.6 1.6 12.9 1.99 14 0.4 1.1 1.31 7.4 2.02 14s1.61 12.72 1.99 13.6 1.33 7.36 2.11 14.4c0.77 7.04 1.64 12.98 1.92 13.2s1.17 6.44 1.98 13.83 1.77 13.62 2.14 13.85c0.87 0.54 0.87 1.92-0.01 1.92-0.37 0-1-0.68-1.4-1.52s-3.29-4.34-6.42-7.8c-3.14-3.45-6.74-7.5-8-8.99-1.27-1.49-3.92-4.44-5.9-6.57-1.98-2.12-4.46-4.86-5.5-6.09-2.47-2.9-11.68-13.33-15.4-17.43-1.59-1.76-3.84-4.28-4.99-5.6-5.01-5.73-10.76-12.1-13.96-15.46-1.9-2-3.958-4.55-4.568-5.68-0.611-1.14-2.477-3.55-4.146-5.38-1.67-1.83-4.836-5.41-7.036-7.97-2.2-2.55-4.903-5.61-6.007-6.79-1.103-1.19-4.954-5.52-8.558-9.64-3.603-4.11-8.036-9.1-9.851-11.08-5.242-5.72-5.295-6.05-1.16-7.21 1.967-0.55 3.576-1.25 3.576-1.57 0-0.31 1.53-1.02 3.4-1.57 1.87-0.56 5.301-1.87 7.624-2.93s4.673-1.92 5.222-1.92 1.708-0.48 2.576-1.07 3.558-1.76 5.978-2.6c2.42-0.83 4.58-1.74 4.8-2.01s1.84-0.94 3.6-1.49c1.76-0.56 3.92-1.45 4.8-2 0.88-0.54 3.58-1.63 6-2.43s5.12-1.9 6-2.45c0.88-0.56 3.13-1.46 5-2.01 1.87-0.54 3.4-1.3 3.4-1.67s0.52-0.67 1.14-0.67c0.63 0 3.42-1.04 6.2-2.3 6.57-2.99 11-4.55 11.09-3.9m11.57 3.16c2.5 2.02 9.09 6.1 10.62 6.58 0.98 0.31 1.78 0.85 1.78 1.19 0 0.35 1.44 1.28 3.2 2.07s3.2 1.69 3.2 2 1.44 1.21 3.2 2 3.2 1.68 3.2 1.97 1.28 1.14 2.84 1.89c1.56 0.74 3.27 1.72 3.8 2.18s2.84 1.98 5.14 3.39c12.45 7.65 20.22 12.45 27.62 17.09 1.65 1.03 4.35 2.72 6 3.74s5.61 3.54 8.79 5.6c3.19 2.06 5.98 3.74 6.22 3.74 0.23 0 3.15 1.8 6.47 4s6.25 4 6.5 4c0.26 0 1.58 0.82 2.94 1.82 3.79 2.78 12.22 7.78 13.13 7.78 0.45 0 0.94 0.27 1.08 0.6 0.28 0.62 9.17 6.6 9.82 6.6 0.2 0 1.97 1.08 3.93 2.4 1.95 1.32 3.78 2.4 4.07 2.4s0.95 0.37 1.48 0.83c1.48 1.27 10.84 7.17 11.37 7.17 0.26 0 0.9 0.36 1.43 0.81 1.64 1.37 6.88 4.7 9.59 6.09 1.42 0.73 2.76 1.58 2.98 1.9s1.56 1.17 2.98 1.9c2.62 1.34 7.9 4.68 9.5 6 0.48 0.4 2.1 1.36 3.6 2.13 1.49 0.77 2.9 1.65 3.12 1.97s1.93 1.36 3.8 2.31c4.49 2.27 4.32 2.74-1.6 4.24-2.75 0.7-8.24 2.17-12.2 3.28-27.3 7.61-34.99 9.64-44.8 11.8-3.96 0.87-7.74 1.8-8.4 2.07-1.38 0.56-14.43 3.59-25.6 5.94-4.18 0.88-8.32 1.94-9.2 2.35-0.88 0.42-3.92 1.16-6.76 1.65s-6.62 1.37-8.4 1.97c-1.78 0.59-5.4 1.46-8.04 1.93s-6.6 1.38-8.8 2.02c-3.61 1.05-8.78 2.31-23.14 5.61-7.96 1.83-7.87 1.95-9.6-13.68-0.83-7.42-1.76-13.85-2.08-14.29s-1.23-6.74-2.03-14c-0.79-7.26-1.67-13.38-1.96-13.6-0.28-0.22-1.17-6.34-1.96-13.6s-1.71-13.56-2.03-14-1.24-6.74-2.03-14-1.68-13.38-1.97-13.6c-0.28-0.22-1.14-6.16-1.9-13.2s-1.7-13.52-2.09-14.4c-0.66-1.5-2.41-15.07-2.41-18.71 0-1.63 1.52-1.6 3.6 0.07m-93.115 45.2c3.693 4.26 7.435 8.51 8.315 9.44 1.595 1.68 6.557 7.33 15.1 17.19 5.734 6.62 6.645 5.27-7.5 11.16-3.3 1.38-7.836 3.39-10.08 4.48-2.244 1.08-4.344 1.97-4.666 1.97-0.658 0-10.318 4.05-15.342 6.44-1.808 0.86-3.507 1.56-3.776 1.56s-2.389 0.86-4.712 1.92c-9.447 4.29-18.35 7.82-18.74 7.43-0.435-0.43 0.715-3.75 1.301-3.75 0.329 0 1.236-1.71 2.016-3.8s1.864-4.34 2.41-5 1.469-2.55 2.051-4.2c0.583-1.65 1.347-3 1.699-3 0.351 0 0.639-0.36 0.639-0.8s2.34-5.62 5.2-11.51 5.2-11.11 5.2-11.6 0.324-0.89 0.72-0.89c0.395 0 1.367-1.8 2.158-4s1.727-4 2.08-4 0.642-0.34 0.642-0.76c0-1.35 7.262-16.04 7.927-16.04 0.353 0 3.664 3.49 7.358 7.76m228.84 10.51c0.15 0.37 2.79 2.16 5.87 3.97 3.08 1.82 6 3.65 6.49 4.06s2.29 1.51 4 2.44c1.71 0.92 5.4 3.11 8.19 4.87 2.8 1.75 5.38 3.19 5.74 3.19 0.37 0 1.16 0.49 1.76 1.1 0.6 0.6 2.16 1.69 3.46 2.42 1.3 0.74 3.98 2.39 5.96 3.68s5.22 3.27 7.2 4.39c6.17 3.51 9.1 5.33 11.09 6.9 1.06 0.83 2.22 1.51 2.58 1.51s2.25 1.08 4.21 2.4c1.95 1.32 3.95 2.4 4.44 2.4 0.48 0 0.88 0.29 0.88 0.65s1.17 1.28 2.6 2.04c1.43 0.77 4.39 2.43 6.57 3.69l3.97 2.3-2.37 0.57c-1.3 0.32-4.89 1.26-7.97 2.11-3.08 0.84-7.25 1.93-9.26 2.42l-3.67 0.88-12.7-7.93c-6.99-4.36-13.07-8.08-13.52-8.26s-2.23-1.35-3.95-2.6c-1.73-1.25-3.63-2.27-4.22-2.27s-1.08-0.27-1.08-0.6-1.84-1.68-4.1-3c-2.25-1.32-4.92-2.94-5.93-3.6-1-0.66-3.57-2.25-5.7-3.53-3.38-2.03-11.01-6.78-15.89-9.88-0.87-0.55-2.39-1.42-3.38-1.92-2.2-1.13-2.27-2.28-0.29-4.56 0.83-0.96 2.72-3.71 4.2-6.11 2.5-4.05 4.18-5.35 4.82-3.73m89.36 89.13c-0.18 52.46-0.93 81.15-2.09 79.78-1.57-1.84-15.04-18.04-16.04-19.28-0.49-0.6-1.8-2.18-2.9-3.5-1.11-1.32-5.31-6.36-9.32-11.2-8.13-9.8-9.49-11.44-19.96-24-4.04-4.84-8.54-10.24-10-12s-5.62-6.72-9.23-11.03c-3.61-4.3-6.37-8.02-6.14-8.25 0.24-0.23 2.71-0.94 5.51-1.58 2.79-0.64 5.8-1.5 6.68-1.92 0.88-0.43 4.12-1.33 7.2-2 3.08-0.68 6.32-1.56 7.2-1.96 0.88-0.41 4.3-1.36 7.6-2.12s6.18-1.63 6.4-1.92c0.22-0.3 3.46-1.18 7.2-1.97s7.16-1.71 7.6-2.03c0.44-0.33 3.5-1.24 6.8-2.02s6.36-1.7 6.8-2.03c0.72-0.56 3.18-1.17 5.8-1.46 0.79-0.09 0.98 6.43 0.89 30.49"/>
  <path id="path1" d="m224.8 11.558c-1.54 0.611-7.12 2.42-12.4 4.02s-11.04 3.397-12.8 3.994c-1.76 0.596-6.98 2.228-11.6 3.625-8.75 2.647-17.58 5.382-24.4 7.565-11.44 3.659-17.36 5.464-22.8 6.943-3.3 0.899-6.36 1.913-6.8 2.254s-1.7 0.837-2.8 1.101c-3.9 0.937-3.92 1.179-4.8 44.309-0.45 22.351-1.03 45.441-1.3 51.311l-0.47 10.69-3.72 1.56c-2.04 0.85-5.19 2.26-7 3.11-1.81 0.86-3.58 1.56-3.95 1.56-0.36 0-2.12 0.7-3.91 1.54-1.79 0.85-6.67 2.87-10.85 4.48-4.18 1.62-9.11 3.62-10.956 4.46s-3.545 1.52-3.776 1.52c-0.232 0-2.388 0.9-4.793 2s-4.579 2-4.832 2-1.987 0.68-3.852 1.52-6.562 2.72-10.437 4.2l-7.046 2.68-8.496 17.2c-4.673 9.46-13.863 28.18-20.422 41.6s-12.435 25.36-13.058 26.52c-1.646 3.09-1.427 6.07 0.523 7.11 1.78 0.95 10.345-1.15 10.345-2.54 0-0.38 0.555-0.69 1.233-0.69 0.679 0 3.469-1.04 6.2-2.3 2.732-1.27 5.867-2.56 6.967-2.88s2.72-1.02 3.6-1.55 3.4-1.63 5.6-2.44c2.2-0.82 4.18-1.7 4.4-1.96 0.22-0.27 2.38-1.17 4.8-2.01s5.12-1.97 6-2.51 2.5-1.24 3.6-1.56c1.925-0.56 8.192-3.23 13.2-5.62 1.32-0.63 3.989-1.7 5.931-2.37s3.922-1.52 4.4-1.89 2.774-1.34 5.101-2.16l4.233-1.49 4.167 4.71c2.288 2.59 6.148 6.92 8.568 9.62s6.74 7.57 9.6 10.83 6.1 6.89 7.2 8.08c1.1 1.18 3.8 4.2 6 6.71s4.38 4.98 4.84 5.48c1.61 1.74 8.79 9.82 13.96 15.7 2.86 3.25 5.92 6.68 6.8 7.62s3.71 4.12 6.28 7.06c2.58 2.95 5.38 5.73 6.23 6.19 1.57 0.84 12.7-0.84 16.29-2.46 0.88-0.4 4.66-1.3 8.4-2s7.52-1.6 8.4-2 4.66-1.3 8.4-2 7.52-1.6 8.4-2 4.66-1.3 8.4-2 7.52-1.6 8.4-2 4.66-1.3 8.4-2 7.52-1.6 8.4-2 4.66-1.3 8.4-2 7.52-1.6 8.4-2 4.66-1.3 8.4-2 7.52-1.6 8.4-1.99 3.33-1.06 5.44-1.47l3.83-0.76 28.04 33.71c15.42 18.54 29.53 35.49 31.36 37.68 1.83 2.18 4.7 5.6 6.37 7.6 1.67 1.99 3.83 4.54 4.8 5.65s4.41 5.3 7.64 9.31c7.16 8.86 9.04 10.11 11.51 7.64l1.73-1.74 0.59-65.01 0.59-65.02-2.49-2.09c-1.37-1.15-3.78-2.77-5.35-3.59-1.57-0.83-3.05-1.76-3.28-2.06-0.23-0.31-1.31-1.05-2.4-1.64-2.71-1.48-10.07-5.88-14.16-8.48-3.02-1.91-13.16-8.18-17.42-10.77-0.88-0.53-3.15-1.96-5.04-3.17s-3.71-2.2-4.04-2.2c-0.34 0-1.85-0.93-3.36-2.07-1.52-1.14-3.48-2.4-4.36-2.81-0.88-0.42-3.13-1.74-4.99-2.94-7.55-4.86-14.61-8.98-15.39-8.98-0.45 0-0.82-0.27-0.83-0.6 0-0.33-2.49-2.03-5.52-3.78l-5.52-3.18 1.63-3.19c0.9-1.76 2.26-4.11 3.02-5.23 0.76-1.11 2.51-3.82 3.87-6.02 1.37-2.2 2.82-4.39 3.22-4.88 0.41-0.48 1.32-2 2.03-3.37 1.14-2.2 3.2-5.48 6.23-9.89 0.84-1.23 1.15-1.18 3.77 0.6 1.57 1.07 3.31 1.94 3.87 1.94 0.55 0 1.01 0.32 1.01 0.7 0 1.13 4.42 2.65 6.86 2.36 2.35-0.27 6.09-5.73 7.17-10.46 0.27-1.21 0.83-2.2 1.23-2.2 0.41 0 0.74-0.39 0.74-0.86 0-0.78 1.45-4.04 7.6-17.14 4.74-10.08 6.8-14.8 6.8-15.57 0-0.45 0.36-0.83 0.8-0.83s0.8-0.34 0.8-0.75c0-0.42 1.48-3.93 3.28-7.8 1.8-3.88 4.11-8.85 5.12-11.05 1.02-2.2 3.36-7.24 5.21-11.2 6.42-13.717 7.86-16.826 10.39-22.4 1.4-3.08 3.41-7.381 4.47-9.557s1.93-4.426 1.93-5 0.36-1.043 0.8-1.043 0.8-0.377 0.8-0.837 1.31-3.61 2.92-7c3.66-7.73 4.05-12.423 1.08-12.85-2.1-0.302-12.63 1.326-14 2.165-0.78 0.476-9.86 2.541-25.2 5.73-4.18 0.869-8.14 1.819-8.8 2.112-0.66 0.292-4.98 1.376-9.6 2.41-4.62 1.033-12.18 2.747-16.8 3.808-4.62 1.062-12.36 2.828-17.2 3.925s-12.76 2.936-17.6 4.085c-4.84 1.15-12.58 2.946-17.2 3.991-9.33 2.11-23.32 5.432-28.71 6.816-1.92 0.495-3.64 0.758-3.82 0.584-0.29-0.294 1.02-21.296 3.02-48.441 0.69-9.396 0.65-11.694-0.22-12.548-1.71-1.673-4.85-1.989-7.87-0.792m0.4 17.842c-0.32 5.61-0.74 11.28-0.96 12.6-0.21 1.32-0.84 9.174-1.39 17.452-1.17 17.355-0.78 16.571-9.25 18.559-3.3 0.774-6.36 1.671-6.8 1.994-0.44 0.322-2.66 1.021-4.93 1.554-5.96 1.396-2.71-3.997-30.48 50.641-4.64 9.13-8.76 16.6-9.15 16.6s-1.68-0.66-2.87-1.48c-2.08-1.41-6.12-3.97-10.74-6.79-2.34-1.43-5.44-1.74-6.67-0.66-1.22 1.07-8.42 3.54-8.9 3.06-0.24-0.25-0.04-18.02 0.46-39.49 0.49-21.471 0.89-42.83 0.89-47.463l-0.01-8.423 5.8-1.475c3.19-0.811 6.16-1.744 6.6-2.072 0.44-0.329 2.78-1.047 5.2-1.597s5.48-1.479 6.8-2.064 4.74-1.654 7.6-2.376 5.56-1.588 6-1.925c0.44-0.336 3.31-1.229 6.38-1.984 3.08-0.754 5.96-1.66 6.4-2.012 0.45-0.352 2.8-1.089 5.22-1.639s5.48-1.479 6.8-2.064 4.74-1.654 7.6-2.376 5.56-1.592 6-1.932c0.44-0.341 3.41-1.248 6.61-2.017 3.19-0.768 6-1.717 6.24-2.109 1.64-2.641 2.07 0.028 1.55 9.488m155.6 18.2c0 0.66-0.36 1.2-0.8 1.2s-0.8 0.335-0.8 0.744c0 0.756-2.81 7.132-7.61 17.256-1.46 3.08-3.99 8.48-5.61 12-1.63 3.52-4.39 9.46-6.14 13.2s-3.84 8.24-4.65 10c-1.73 3.78-6.89 14.88-11.35 24.4-3.27 6.99-4.28 9.17-8.65 18.8-10.52 23.18-9.12 21.39-14.15 18.06-2.04-1.35-4.19-2.46-4.78-2.46-0.58 0-1.06-0.3-1.06-0.66s-3.87-3.23-8.6-6.38c-4.73-3.14-10.62-7.08-13.08-8.74-2.47-1.66-5.04-3.38-5.72-3.82s-6.04-4.04-11.92-7.99c-5.87-3.96-11.28-7.56-12-8-0.73-0.45-7.75-5.16-15.6-10.48-7.86-5.32-15.72-10.64-17.48-11.81-1.76-1.18-3.74-2.51-4.4-2.953-0.66-0.442-3.36-2.231-6-3.975-2.64-1.745-5.16-3.458-5.6-3.808-0.44-0.349-2.15-1.463-3.8-2.475-3.81-2.336-3.99-2.099 2.8-3.732 3.19-0.768 6.16-1.664 6.6-1.993 0.44-0.328 3.5-1.187 6.8-1.908s6.72-1.632 7.6-2.024 4.84-1.298 8.8-2.014 7.92-1.616 8.8-2 4.84-1.284 8.8-2 7.92-1.616 8.8-2 4.8-1.298 8.71-2.031c3.91-0.734 7.69-1.64 8.4-2.014s4.53-1.26 8.49-1.969c3.96-0.708 7.92-1.602 8.8-1.986s4.84-1.284 8.8-2 7.92-1.632 8.8-2.035 4.78-1.307 8.68-2.008c3.89-0.701 7.67-1.591 8.4-1.978 0.72-0.387 4.56-1.284 8.52-1.993 3.96-0.708 7.92-1.605 8.8-1.992s5.02-1.323 9.2-2.08c4.18-0.756 7.96-1.65 8.4-1.987 0.72-0.554 3.18-1.171 5.8-1.456 0.55-0.06 1 0.431 1 1.091m-174.19 48.4c2.46 1.76 4.85 3.2 5.33 3.2 0.47 0 0.86 0.366 0.86 0.81 0 0.45 1.26 1.42 2.8 2.15 1.54 0.74 2.8 1.57 2.8 1.86s1.44 1.21 3.19 2.05c1.76 0.84 3.2 1.79 3.2 2.11 0.01 0.32 1.18 1.18 2.61 1.91s2.78 1.57 3 1.85c0.29 0.39 49.7 33.61 61.46 41.34 0.74 0.48 3.45 2.28 6.02 4 2.58 1.72 5.52 3.68 6.55 4.36 2.19 1.45 2.53 0.6-5.23 12.9-2.86 4.54-5.38 8.61-5.6 9.06-0.22 0.44-1.39 2.32-2.6 4.18s-2.2 3.76-2.2 4.2c0 0.45-0.32 0.82-0.7 0.82-0.39 0-1.14 1.04-1.66 2.31-0.53 1.26-2.01 3.31-3.3 4.55-1.29 1.23-2.34 2.57-2.34 2.97 0 0.41-0.81 1.74-1.8 2.97s-3.17 4.25-4.84 6.71l-3.04 4.47-2.16-1.46c-1.19-0.81-3.6-2.36-5.36-3.46-1.76-1.09-4.82-3.01-6.8-4.26-5.72-3.62-8.85-5.58-14.22-8.9-2.76-1.7-6.44-4-8.18-5.1-2.66-1.68-11.08-6.89-17.19-10.63-0.87-0.53-3.09-1.96-4.94-3.17s-3.55-2.2-3.77-2.2c-0.23 0-2.02-1.08-3.98-2.4-1.95-1.32-3.95-2.4-4.44-2.4-0.48 0-0.88-0.3-0.88-0.66 0-0.37-0.99-1.18-2.2-1.8-1.21-0.63-3.69-2.13-5.52-3.34-1.82-1.21-3.68-2.2-4.13-2.2s-0.94-0.28-1.08-0.61c-0.15-0.34-2.97-2.23-6.27-4.19-3.3-1.97-6.36-3.86-6.8-4.22-0.44-0.35-1.47-1.1-2.29-1.66-1.45-1-1.45-1.11 0.09-4.17 1.62-3.24 17.85-34.9 21.9-42.75 1.26-2.42 2.28-4.85 2.29-5.4s0.32-1 0.7-1c0.39 0 1.45-1.8 2.36-4 2.01-4.83 2.65-4.891 8.36-0.8m-64.98 53c0.01 0.11 0.57 3.8 1.24 8.2s2.02 13.94 3.02 21.2c0.99 7.26 2.03 13.74 2.31 14.4 0.27 0.66 1.07 6.6 1.78 13.2 0.7 6.6 1.6 12.9 1.99 14 0.4 1.1 1.31 7.4 2.02 14s1.61 12.72 1.99 13.6 1.33 7.36 2.11 14.4c0.77 7.04 1.64 12.98 1.92 13.2s1.17 6.44 1.98 13.83 1.77 13.62 2.14 13.85c0.87 0.54 0.87 1.92-0.01 1.92-0.37 0-1-0.68-1.4-1.52s-3.29-4.34-6.42-7.8c-3.14-3.45-6.74-7.5-8-8.99-1.27-1.49-3.92-4.44-5.9-6.57-1.98-2.12-4.46-4.86-5.5-6.09-2.47-2.9-11.68-13.33-15.4-17.43-1.59-1.76-3.84-4.28-4.99-5.6-5.01-5.73-10.76-12.1-13.96-15.46-1.9-2-3.958-4.55-4.568-5.68-0.611-1.14-2.477-3.55-4.146-5.38-1.67-1.83-4.836-5.41-7.036-7.97-2.2-2.55-4.903-5.61-6.007-6.79-1.103-1.19-4.954-5.52-8.558-9.64-3.603-4.11-8.036-9.1-9.851-11.08-5.242-5.72-5.295-6.05-1.16-7.21 1.967-0.55 3.576-1.25 3.576-1.57 0-0.31 1.53-1.02 3.4-1.57 1.87-0.56 5.301-1.87 7.624-2.93s4.673-1.92 5.222-1.92 1.708-0.48 2.576-1.07 3.558-1.76 5.978-2.6c2.42-0.83 4.58-1.74 4.8-2.01s1.84-0.94 3.6-1.49c1.76-0.56 3.92-1.45 4.8-2 0.88-0.54 3.58-1.63 6-2.43s5.12-1.9 6-2.45c0.88-0.56 3.13-1.46 5-2.01 1.87-0.54 3.4-1.3 3.4-1.67s0.52-0.67 1.14-0.67c0.63 0 3.42-1.04 6.2-2.3 6.57-2.99 11-4.55 11.09-3.9m11.57 3.16c2.5 2.02 9.09 6.1 10.62 6.58 0.98 0.31 1.78 0.85 1.78 1.19 0 0.35 1.44 1.28 3.2 2.07s3.2 1.69 3.2 2 1.44 1.21 3.2 2 3.2 1.68 3.2 1.97 1.28 1.14 2.84 1.89c1.56 0.74 3.27 1.72 3.8 2.18s2.84 1.98 5.14 3.39c12.45 7.65 20.22 12.45 27.62 17.09 1.65 1.03 4.35 2.72 6 3.74s5.61 3.54 8.79 5.6c3.19 2.06 5.98 3.74 6.22 3.74 0.23 0 3.15 1.8 6.47 4s6.25 4 6.5 4c0.26 0 1.58 0.82 2.94 1.82 3.79 2.78 12.22 7.78 13.13 7.78 0.45 0 0.94 0.27 1.08 0.6 0.28 0.62 9.17 6.6 9.82 6.6 0.2 0 1.97 1.08 3.93 2.4 1.95 1.32 3.78 2.4 4.07 2.4s0.95 0.37 1.48 0.83c1.48 1.27 10.84 7.17 11.37 7.17 0.26 0 0.9 0.36 1.43 0.81 1.64 1.37 6.88 4.7 9.59 6.09 1.42 0.73 2.76 1.58 2.98 1.9s1.56 1.17 2.98 1.9c2.62 1.34 7.9 4.68 9.5 6 0.48 0.4 2.1 1.36 3.6 2.13 1.49 0.77 2.9 1.65 3.12 1.97s1.93 1.36 3.8 2.31c4.49 2.27 4.32 2.74-1.6 4.24-2.75 0.7-8.24 2.17-12.2 3.28-27.3 7.61-34.99 9.64-44.8 11.8-3.96 0.87-7.74 1.8-8.4 2.07-1.38 0.56-14.43 3.59-25.6 5.94-4.18 0.88-8.32 1.94-9.2 2.35-0.88 0.42-3.92 1.16-6.76 1.65s-6.62 1.37-8.4 1.97c-1.78 0.59-5.4 1.46-8.04 1.93s-6.6 1.38-8.8 2.02c-3.61 1.05-8.78 2.31-23.14 5.61-7.96 1.83-7.87 1.95-9.6-13.68-0.83-7.42-1.76-13.85-2.08-14.29s-1.23-6.74-2.03-14c-0.79-7.26-1.67-13.38-1.96-13.6-0.28-0.22-1.17-6.34-1.96-13.6s-1.71-13.56-2.03-14-1.24-6.74-2.03-14-1.68-13.38-1.97-13.6c-0.28-0.22-1.14-6.16-1.9-13.2s-1.7-13.52-2.09-14.4c-0.66-1.5-2.41-15.07-2.41-18.71 0-1.63 1.52-1.6 3.6 0.07m-93.115 45.2c3.693 4.26 7.435 8.51 8.315 9.44 1.595 1.68 6.557 7.33 15.1 17.19 5.734 6.62 6.645 5.27-7.5 11.16-3.3 1.38-7.836 3.39-10.08 4.48-2.244 1.08-4.344 1.97-4.666 1.97-0.658 0-10.318 4.05-15.342 6.44-1.808 0.86-3.507 1.56-3.776 1.56s-2.389 0.86-4.712 1.92c-9.447 4.29-18.35 7.82-18.74 7.43-0.435-0.43 0.715-3.75 1.301-3.75 0.329 0 1.236-1.71 2.016-3.8s1.864-4.34 2.41-5 1.469-2.55 2.051-4.2c0.583-1.65 1.347-3 1.699-3 0.351 0 0.639-0.36 0.639-0.8s2.34-5.62 5.2-11.51 5.2-11.11 5.2-11.6 0.324-0.89 0.72-0.89c0.395 0 1.367-1.8 2.158-4s1.727-4 2.08-4 0.642-0.34 0.642-0.76c0-1.35 7.262-16.04 7.927-16.04 0.353 0 3.664 3.49 7.358 7.76m228.84 10.51c0.15 0.37 2.79 2.16 5.87 3.97 3.08 1.82 6 3.65 6.49 4.06s2.29 1.51 4 2.44c1.71 0.92 5.4 3.11 8.19 4.87 2.8 1.75 5.38 3.19 5.74 3.19 0.37 0 1.16 0.49 1.76 1.1 0.6 0.6 2.16 1.69 3.46 2.42 1.3 0.74 3.98 2.39 5.96 3.68s5.22 3.27 7.2 4.39c6.17 3.51 9.1 5.33 11.09 6.9 1.06 0.83 2.22 1.51 2.58 1.51s2.25 1.08 4.21 2.4c1.95 1.32 3.95 2.4 4.44 2.4 0.48 0 0.88 0.29 0.88 0.65s1.17 1.28 2.6 2.04c1.43 0.77 4.39 2.43 6.57 3.69l3.97 2.3-2.37 0.57c-1.3 0.32-4.89 1.26-7.97 2.11-3.08 0.84-7.25 1.93-9.26 2.42l-3.67 0.88-12.7-7.93c-6.99-4.36-13.07-8.08-13.52-8.26s-2.23-1.35-3.95-2.6c-1.73-1.25-3.63-2.27-4.22-2.27s-1.08-0.27-1.08-0.6-1.84-1.68-4.1-3c-2.25-1.32-4.92-2.94-5.93-3.6-1-0.66-3.57-2.25-5.7-3.53-3.38-2.03-11.01-6.78-15.89-9.88-0.87-0.55-2.39-1.42-3.38-1.92-2.2-1.13-2.27-2.28-0.29-4.56 0.83-0.96 2.72-3.71 4.2-6.11 2.5-4.05 4.18-5.35 4.82-3.73m89.36 89.13c-0.18 52.46-0.93 81.15-2.09 79.78-1.57-1.84-15.04-18.04-16.04-19.28-0.49-0.6-1.8-2.18-2.9-3.5-1.11-1.32-5.31-6.36-9.32-11.2-8.13-9.8-9.49-11.44-19.96-24-4.04-4.84-8.54-10.24-10-12s-5.62-6.72-9.23-11.03c-3.61-4.3-6.37-8.02-6.14-8.25 0.24-0.23 2.71-0.94 5.51-1.58 2.79-0.64 5.8-1.5 6.68-1.92 0.88-0.43 4.12-1.33 7.2-2 3.08-0.68 6.32-1.56 7.2-1.96 0.88-0.41 4.3-1.36 7.6-2.12s6.18-1.63 6.4-1.92c0.22-0.3 3.46-1.18 7.2-1.97s7.16-1.71 7.6-2.03c0.44-0.33 3.5-1.24 6.8-2.02s6.36-1.7 6.8-2.03c0.72-0.56 3.18-1.17 5.8-1.46 0.79-0.09 0.98 6.43 0.89 30.49"/>
  <path id="path2" d="m224.8 11.558c-1.54 0.611-7.12 2.42-12.4 4.02s-11.04 3.397-12.8 3.994c-1.76 0.596-6.98 2.228-11.6 3.625-8.75 2.647-17.58 5.382-24.4 7.565-11.44 3.659-17.36 5.464-22.8 6.943-3.3 0.899-6.36 1.913-6.8 2.254s-1.7 0.837-2.8 1.101c-3.9 0.937-3.92 1.179-4.8 44.309-0.45 22.351-1.03 45.441-1.3 51.311l-0.47 10.69-3.72 1.56c-2.04 0.85-5.19 2.26-7 3.11-1.81 0.86-3.58 1.56-3.95 1.56-0.36 0-2.12 0.7-3.91 1.54-1.79 0.85-6.67 2.87-10.85 4.48-4.18 1.62-9.11 3.62-10.956 4.46s-3.545 1.52-3.776 1.52c-0.232 0-2.388 0.9-4.793 2s-4.579 2-4.832 2-1.987 0.68-3.852 1.52-6.562 2.72-10.437 4.2l-7.046 2.68-8.496 17.2c-4.673 9.46-13.863 28.18-20.422 41.6s-12.435 25.36-13.058 26.52c-1.646 3.09-1.427 6.07 0.523 7.11 1.78 0.95 10.345-1.15 10.345-2.54 0-0.38 0.555-0.69 1.233-0.69 0.679 0 3.469-1.04 6.2-2.3 2.732-1.27 5.867-2.56 6.967-2.88s2.72-1.02 3.6-1.55 3.4-1.63 5.6-2.44c2.2-0.82 4.18-1.7 4.4-1.96 0.22-0.27 2.38-1.17 4.8-2.01s5.12-1.97 6-2.51 2.5-1.24 3.6-1.56c1.925-0.56 8.192-3.23 13.2-5.62 1.32-0.63 3.989-1.7 5.931-2.37s3.922-1.52 4.4-1.89 2.774-1.34 5.101-2.16l4.233-1.49 4.167 4.71c2.288 2.59 6.148 6.92 8.568 9.62s6.74 7.57 9.6 10.83 6.1 6.89 7.2 8.08c1.1 1.18 3.8 4.2 6 6.71s4.38 4.98 4.84 5.48c1.61 1.74 8.79 9.82 13.96 15.7 2.86 3.25 5.92 6.68 6.8 7.62s3.71 4.12 6.28 7.06c2.58 2.95 5.38 5.73 6.23 6.19 1.57 0.84 12.7-0.84 16.29-2.46 0.88-0.4 4.66-1.3 8.4-2s7.52-1.6 8.4-2 4.66-1.3 8.4-2 7.52-1.6 8.4-2 4.66-1.3 8.4-2 7.52-1.6 8.4-2 4.66-1.3 8.4-2 7.52-1.6 8.4-2 4.66-1.3 8.4-2 7.52-1.6 8.4-2 4.66-1.3 8.4-2 7.52-1.6 8.4-1.99 3.33-1.06 5.44-1.47l3.83-0.76 28.04 33.71c15.42 18.54 29.53 35.49 31.36 37.68 1.83 2.18 4.7 5.6 6.37 7.6 1.67 1.99 3.83 4.54 4.8 5.65s4.41 5.3 7.64 9.31c7.16 8.86 9.04 10.11 11.51 7.64l1.73-1.74 0.59-65.01 0.59-65.02-2.49-2.09c-1.37-1.15-3.78-2.77-5.35-3.59-1.57-0.83-3.05-1.76-3.28-2.06-0.23-0.31-1.31-1.05-2.4-1.64-2.71-1.48-10.07-5.88-14.16-8.48-3.02-1.91-13.16-8.18-17.42-10.77-0.88-0.53-3.15-1.96-5.04-3.17s-3.71-2.2-4.04-2.2c-0.34 0-1.85-0.93-3.36-2.07-1.52-1.14-3.48-2.4-4.36-2.81-0.88-0.42-3.13-1.74-4.99-2.94-7.55-4.86-14.61-8.98-15.39-8.98-0.45 0-0.82-0.27-0.83-0.6 0-0.33-2.49-2.03-5.52-3.78l-5.52-3.18 1.63-3.19c0.9-1.76 2.26-4.11 3.02-5.23 0.76-1.11 2.51-3.82 3.87-6.02 1.37-2.2 2.82-4.39 3.22-4.88 0.41-0.48 1.32-2 2.03-3.37 1.14-2.2 3.2-5.48 6.23-9.89 0.84-1.23 1.15-1.18 3.77 0.6 1.57 1.07 3.31 1.94 3.87 1.94 0.55 0 1.01 0.32 1.01 0.7 0 1.13 4.42 2.65 6.86 2.36 2.35-0.27 6.09-5.73 7.17-10.46 0.27-1.21 0.83-2.2 1.23-2.2 0.41 0 0.74-0.39 0.74-0.86 0-0.78 1.45-4.04 7.6-17.14 4.74-10.08 6.8-14.8 6.8-15.57 0-0.45 0.36-0.83 0.8-0.83s0.8-0.34 0.8-0.75c0-0.42 1.48-3.93 3.28-7.8 1.8-3.88 4.11-8.85 5.12-11.05 1.02-2.2 3.36-7.24 5.21-11.2 6.42-13.717 7.86-16.826 10.39-22.4 1.4-3.08 3.41-7.381 4.47-9.557s1.93-4.426 1.93-5 0.36-1.043 0.8-1.043 0.8-0.377 0.8-0.837 1.31-3.61 2.92-7c3.66-7.73 4.05-12.423 1.08-12.85-2.1-0.302-12.63 1.326-14 2.165-0.78 0.476-9.86 2.541-25.2 5.73-4.18 0.869-8.14 1.819-8.8 2.112-0.66 0.292-4.98 1.376-9.6 2.41-4.62 1.033-12.18 2.747-16.8 3.808-4.62 1.062-12.36 2.828-17.2 3.925s-12.76 2.936-17.6 4.085c-4.84 1.15-12.58 2.946-17.2 3.991-9.33 2.11-23.32 5.432-28.71 6.816-1.92 0.495-3.64 0.758-3.82 0.584-0.29-0.294 1.02-21.296 3.02-48.441 0.69-9.396 0.65-11.694-0.22-12.548-1.71-1.673-4.85-1.989-7.87-0.792m0.4 17.842c-0.32 5.61-0.74 11.28-0.96 12.6-0.21 1.32-0.84 9.174-1.39 17.452-1.17 17.355-0.78 16.571-9.25 18.559-3.3 0.774-6.36 1.671-6.8 1.994-0.44 0.322-2.66 1.021-4.93 1.554-5.96 1.396-2.71-3.997-30.48 50.641-4.64 9.13-8.76 16.6-9.15 16.6s-1.68-0.66-2.87-1.48c-2.08-1.41-6.12-3.97-10.74-6.79-2.34-1.43-5.44-1.74-6.67-0.66-1.22 1.07-8.42 3.54-8.9 3.06-0.24-0.25-0.04-18.02 0.46-39.49 0.49-21.471 0.89-42.83 0.89-47.463l-0.01-8.423 5.8-1.475c3.19-0.811 6.16-1.744 6.6-2.072 0.44-0.329 2.78-1.047 5.2-1.597s5.48-1.479 6.8-2.064 4.74-1.654 7.6-2.376 5.56-1.588 6-1.925c0.44-0.336 3.31-1.229 6.38-1.984 3.08-0.754 5.96-1.66 6.4-2.012 0.45-0.352 2.8-1.089 5.22-1.639s5.48-1.479 6.8-2.064 4.74-1.654 7.6-2.376 5.56-1.592 6-1.932c0.44-0.341 3.41-1.248 6.61-2.017 3.19-0.768 6-1.717 6.24-2.109 1.64-2.641 2.07 0.028 1.55 9.488m155.6 18.2c0 0.66-0.36 1.2-0.8 1.2s-0.8 0.335-0.8 0.744c0 0.756-2.81 7.132-7.61 17.256-1.46 3.08-3.99 8.48-5.61 12-1.63 3.52-4.39 9.46-6.14 13.2s-3.84 8.24-4.65 10c-1.73 3.78-6.89 14.88-11.35 24.4-3.27 6.99-4.28 9.17-8.65 18.8-10.52 23.18-9.12 21.39-14.15 18.06-2.04-1.35-4.19-2.46-4.78-2.46-0.58 0-1.06-0.3-1.06-0.66s-3.87-3.23-8.6-6.38c-4.73-3.14-10.62-7.08-13.08-8.74-2.47-1.66-5.04-3.38-5.72-3.82s-6.04-4.04-11.92-7.99c-5.87-3.96-11.28-7.56-12-8-0.73-0.45-7.75-5.16-15.6-10.48-7.86-5.32-15.72-10.64-17.48-11.81-1.76-1.18-3.74-2.51-4.4-2.953-0.66-0.442-3.36-2.231-6-3.975-2.64-1.745-5.16-3.458-5.6-3.808-0.44-0.349-2.15-1.463-3.8-2.475-3.81-2.336-3.99-2.099 2.8-3.732 3.19-0.768 6.16-1.664 6.6-1.993 0.44-0.328 3.5-1.187 6.8-1.908s6.72-1.632 7.6-2.024 4.84-1.298 8.8-2.014 7.92-1.616 8.8-2 4.84-1.284 8.8-2 7.92-1.616 8.8-2 4.8-1.298 8.71-2.031c3.91-0.734 7.69-1.64 8.4-2.014s4.53-1.26 8.49-1.969c3.96-0.708 7.92-1.602 8.8-1.986s4.84-1.284 8.8-2 7.92-1.632 8.8-2.035 4.78-1.307 8.68-2.008c3.89-0.701 7.67-1.591 8.4-1.978 0.72-0.387 4.56-1.284 8.52-1.993 3.96-0.708 7.92-1.605 8.8-1.992s5.02-1.323 9.2-2.08c4.18-0.756 7.96-1.65 8.4-1.987 0.72-0.554 3.18-1.171 5.8-1.456 0.55-0.06 1 0.431 1 1.091m-174.19 48.4c2.46 1.76 4.85 3.2 5.33 3.2 0.47 0 0.86 0.366 0.86 0.81 0 0.45 1.26 1.42 2.8 2.15 1.54 0.74 2.8 1.57 2.8 1.86s1.44 1.21 3.19 2.05c1.76 0.84 3.2 1.79 3.2 2.11 0.01 0.32 1.18 1.18 2.61 1.91s2.78 1.57 3 1.85c0.29 0.39 49.7 33.61 61.46 41.34 0.74 0.48 3.45 2.28 6.02 4 2.58 1.72 5.52 3.68 6.55 4.36 2.19 1.45 2.53 0.6-5.23 12.9-2.86 4.54-5.38 8.61-5.6 9.06-0.22 0.44-1.39 2.32-2.6 4.18s-2.2 3.76-2.2 4.2c0 0.45-0.32 0.82-0.7 0.82-0.39 0-1.14 1.04-1.66 2.31-0.53 1.26-2.01 3.31-3.3 4.55-1.29 1.23-2.34 2.57-2.34 2.97 0 0.41-0.81 1.74-1.8 2.97s-3.17 4.25-4.84 6.71l-3.04 4.47-2.16-1.46c-1.19-0.81-3.6-2.36-5.36-3.46-1.76-1.09-4.82-3.01-6.8-4.26-5.72-3.62-8.85-5.58-14.22-8.9-2.76-1.7-6.44-4-8.18-5.1-2.66-1.68-11.08-6.89-17.19-10.63-0.87-0.53-3.09-1.96-4.94-3.17s-3.55-2.2-3.77-2.2c-0.23 0-2.02-1.08-3.98-2.4-1.95-1.32-3.95-2.4-4.44-2.4-0.48 0-0.88-0.3-0.88-0.66 0-0.37-0.99-1.18-2.2-1.8-1.21-0.63-3.69-2.13-5.52-3.34-1.82-1.21-3.68-2.2-4.13-2.2s-0.94-0.28-1.08-0.61c-0.15-0.34-2.97-2.23-6.27-4.19-3.3-1.97-6.36-3.86-6.8-4.22-0.44-0.35-1.47-1.1-2.29-1.66-1.45-1-1.45-1.11 0.09-4.17 1.62-3.24 17.85-34.9 21.9-42.75 1.26-2.42 2.28-4.85 2.29-5.4s0.32-1 0.7-1c0.39 0 1.45-1.8 2.36-4 2.01-4.83 2.65-4.891 8.36-0.8m-64.98 53c0.01 0.11 0.57 3.8 1.24 8.2s2.02 13.94 3.02 21.2c0.99 7.26 2.03 13.74 2.31 14.4 0.27 0.66 1.07 6.6 1.78 13.2 0.7 6.6 1.6 12.9 1.99 14 0.4 1.1 1.31 7.4 2.02 14s1.61 12.72 1.99 13.6 1.33 7.36 2.11 14.4c0.77 7.04 1.64 12.98 1.92 13.2s1.17 6.44 1.98 13.83 1.77 13.62 2.14 13.85c0.87 0.54 0.87 1.92-0.01 1.92-0.37 0-1-0.68-1.4-1.52s-3.29-4.34-6.42-7.8c-3.14-3.45-6.74-7.5-8-8.99-1.27-1.49-3.92-4.44-5.9-6.57-1.98-2.12-4.46-4.86-5.5-6.09-2.47-2.9-11.68-13.33-15.4-17.43-1.59-1.76-3.84-4.28-4.99-5.6-5.01-5.73-10.76-12.1-13.96-15.46-1.9-2-3.958-4.55-4.568-5.68-0.611-1.14-2.477-3.55-4.146-5.38-1.67-1.83-4.836-5.41-7.036-7.97-2.2-2.55-4.903-5.61-6.007-6.79-1.103-1.19-4.954-5.52-8.558-9.64-3.603-4.11-8.036-9.1-9.851-11.08-5.242-5.72-5.295-6.05-1.16-7.21 1.967-0.55 3.576-1.25 3.576-1.57 0-0.31 1.53-1.02 3.4-1.57 1.87-0.56 5.301-1.87 7.624-2.93s4.673-1.92 5.222-1.92 1.708-0.48 2.576-1.07 3.558-1.76 5.978-2.6c2.42-0.83 4.58-1.74 4.8-2.01s1.84-0.94 3.6-1.49c1.76-0.56 3.92-1.45 4.8-2 0.88-0.54 3.58-1.63 6-2.43s5.12-1.9 6-2.45c0.88-0.56 3.13-1.46 5-2.01 1.87-0.54 3.4-1.3 3.4-1.67s0.52-0.67 1.14-0.67c0.63 0 3.42-1.04 6.2-2.3 6.57-2.99 11-4.55 11.09-3.9m11.57 3.16c2.5 2.02 9.09 6.1 10.62 6.58 0.98 0.31 1.78 0.85 1.78 1.19 0 0.35 1.44 1.28 3.2 2.07s3.2 1.69 3.2 2 1.44 1.21 3.2 2 3.2 1.68 3.2 1.97 1.28 1.14 2.84 1.89c1.56 0.74 3.27 1.72 3.8 2.18s2.84 1.98 5.14 3.39c12.45 7.65 20.22 12.45 27.62 17.09 1.65 1.03 4.35 2.72 6 3.74s5.61 3.54 8.79 5.6c3.19 2.06 5.98 3.74 6.22 3.74 0.23 0 3.15 1.8 6.47 4s6.25 4 6.5 4c0.26 0 1.58 0.82 2.94 1.82 3.79 2.78 12.22 7.78 13.13 7.78 0.45 0 0.94 0.27 1.08 0.6 0.28 0.62 9.17 6.6 9.82 6.6 0.2 0 1.97 1.08 3.93 2.4 1.95 1.32 3.78 2.4 4.07 2.4s0.95 0.37 1.48 0.83c1.48 1.27 10.84 7.17 11.37 7.17 0.26 0 0.9 0.36 1.43 0.81 1.64 1.37 6.88 4.7 9.59 6.09 1.42 0.73 2.76 1.58 2.98 1.9s1.56 1.17 2.98 1.9c2.62 1.34 7.9 4.68 9.5 6 0.48 0.4 2.1 1.36 3.6 2.13 1.49 0.77 2.9 1.65 3.12 1.97s1.93 1.36 3.8 2.31c4.49 2.27 4.32 2.74-1.6 4.24-2.75 0.7-8.24 2.17-12.2 3.28-27.3 7.61-34.99 9.64-44.8 11.8-3.96 0.87-7.74 1.8-8.4 2.07-1.38 0.56-14.43 3.59-25.6 5.94-4.18 0.88-8.32 1.94-9.2 2.35-0.88 0.42-3.92 1.16-6.76 1.65s-6.62 1.37-8.4 1.97c-1.78 0.59-5.4 1.46-8.04 1.93s-6.6 1.38-8.8 2.02c-3.61 1.05-8.78 2.31-23.14 5.61-7.96 1.83-7.87 1.95-9.6-13.68-0.83-7.42-1.76-13.85-2.08-14.29s-1.23-6.74-2.03-14c-0.79-7.26-1.67-13.38-1.96-13.6-0.28-0.22-1.17-6.34-1.96-13.6s-1.71-13.56-2.03-14-1.24-6.74-2.03-14-1.68-13.38-1.97-13.6c-0.28-0.22-1.14-6.16-1.9-13.2s-1.7-13.52-2.09-14.4c-0.66-1.5-2.41-15.07-2.41-18.71 0-1.63 1.52-1.6 3.6 0.07m-93.115 45.2c3.693 4.26 7.435 8.51 8.315 9.44 1.595 1.68 6.557 7.33 15.1 17.19 5.734 6.62 6.645 5.27-7.5 11.16-3.3 1.38-7.836 3.39-10.08 4.48-2.244 1.08-4.344 1.97-4.666 1.97-0.658 0-10.318 4.05-15.342 6.44-1.808 0.86-3.507 1.56-3.776 1.56s-2.389 0.86-4.712 1.92c-9.447 4.29-18.35 7.82-18.74 7.43-0.435-0.43 0.715-3.75 1.301-3.75 0.329 0 1.236-1.71 2.016-3.8s1.864-4.34 2.41-5 1.469-2.55 2.051-4.2c0.583-1.65 1.347-3 1.699-3 0.351 0 0.639-0.36 0.639-0.8s2.34-5.62 5.2-11.51 5.2-11.11 5.2-11.6 0.324-0.89 0.72-0.89c0.395 0 1.367-1.8 2.158-4s1.727-4 2.08-4 0.642-0.34 0.642-0.76c0-1.35 7.262-16.04 7.927-16.04 0.353 0 3.664 3.49 7.358 7.76m228.84 10.51c0.15 0.37 2.79 2.16 5.87 3.97 3.08 1.82 6 3.65 6.49 4.06s2.29 1.51 4 2.44c1.71 0.92 5.4 3.11 8.19 4.87 2.8 1.75 5.38 3.19 5.74 3.19 0.37 0 1.16 0.49 1.76 1.1 0.6 0.6 2.16 1.69 3.46 2.42 1.3 0.74 3.98 2.39 5.96 3.68s5.22 3.27 7.2 4.39c6.17 3.51 9.1 5.33 11.09 6.9 1.06 0.83 2.22 1.51 2.58 1.51s2.25 1.08 4.21 2.4c1.95 1.32 3.95 2.4 4.44 2.4 0.48 0 0.88 0.29 0.88 0.65s1.17 1.28 2.6 2.04c1.43 0.77 4.39 2.43 6.57 3.69l3.97 2.3-2.37 0.57c-1.3 0.32-4.89 1.26-7.97 2.11-3.08 0.84-7.25 1.93-9.26 2.42l-3.67 0.88-12.7-7.93c-6.99-4.36-13.07-8.08-13.52-8.26s-2.23-1.35-3.95-2.6c-1.73-1.25-3.63-2.27-4.22-2.27s-1.08-0.27-1.08-0.6-1.84-1.68-4.1-3c-2.25-1.32-4.92-2.94-5.93-3.6-1-0.66-3.57-2.25-5.7-3.53-3.38-2.03-11.01-6.78-15.89-9.88-0.87-0.55-2.39-1.42-3.38-1.92-2.2-1.13-2.27-2.28-0.29-4.56 0.83-0.96 2.72-3.71 4.2-6.11 2.5-4.05 4.18-5.35 4.82-3.73m89.36 89.13c-0.18 52.46-0.93 81.15-2.09 79.78-1.57-1.84-15.04-18.04-16.04-19.28-0.49-0.6-1.8-2.18-2.9-3.5-1.11-1.32-5.31-6.36-9.32-11.2-8.13-9.8-9.49-11.44-19.96-24-4.04-4.84-8.54-10.24-10-12s-5.62-6.72-9.23-11.03c-3.61-4.3-6.37-8.02-6.14-8.25 0.24-0.23 2.71-0.94 5.51-1.58 2.79-0.64 5.8-1.5 6.68-1.92 0.88-0.43 4.12-1.33 7.2-2 3.08-0.68 6.32-1.56 7.2-1.96 0.88-0.41 4.3-1.36 7.6-2.12s6.18-1.63 6.4-1.92c0.22-0.3 3.46-1.18 7.2-1.97s7.16-1.71 7.6-2.03c0.44-0.33 3.5-1.24 6.8-2.02s6.36-1.7 6.8-2.03c0.72-0.56 3.18-1.17 5.8-1.46 0.79-0.09 0.98 6.43 0.89 30.49"/>
  <path id="path3" d="m224.8 11.558c-1.54 0.611-7.12 2.42-12.4 4.02s-11.04 3.397-12.8 3.994c-1.76 0.596-6.98 2.228-11.6 3.625-8.75 2.647-17.58 5.382-24.4 7.565-11.44 3.659-17.36 5.464-22.8 6.943-3.3 0.899-6.36 1.913-6.8 2.254s-1.7 0.837-2.8 1.101c-3.9 0.937-3.92 1.179-4.8 44.309-0.45 22.351-1.03 45.441-1.3 51.311l-0.47 10.69-3.72 1.56c-2.04 0.85-5.19 2.26-7 3.11-1.81 0.86-3.58 1.56-3.95 1.56-0.36 0-2.12 0.7-3.91 1.54-1.79 0.85-6.67 2.87-10.85 4.48-4.18 1.62-9.11 3.62-10.956 4.46s-3.545 1.52-3.776 1.52c-0.232 0-2.388 0.9-4.793 2s-4.579 2-4.832 2-1.987 0.68-3.852 1.52-6.562 2.72-10.437 4.2l-7.046 2.68-8.496 17.2c-4.673 9.46-13.863 28.18-20.422 41.6s-12.435 25.36-13.058 26.52c-1.646 3.09-1.427 6.07 0.523 7.11 1.78 0.95 10.345-1.15 10.345-2.54 0-0.38 0.555-0.69 1.233-0.69 0.679 0 3.469-1.04 6.2-2.3 2.732-1.27 5.867-2.56 6.967-2.88s2.72-1.02 3.6-1.55 3.4-1.63 5.6-2.44c2.2-0.82 4.18-1.7 4.4-1.96 0.22-0.27 2.38-1.17 4.8-2.01s5.12-1.97 6-2.51 2.5-1.24 3.6-1.56c1.925-0.56 8.192-3.23 13.2-5.62 1.32-0.63 3.989-1.7 5.931-2.37s3.922-1.52 4.4-1.89 2.774-1.34 5.101-2.16l4.233-1.49 4.167 4.71c2.288 2.59 6.148 6.92 8.568 9.62s6.74 7.57 9.6 10.83 6.1 6.89 7.2 8.08c1.1 1.18 3.8 4.2 6 6.71s4.38 4.98 4.84 5.48c1.61 1.74 8.79 9.82 13.96 15.7 2.86 3.25 5.92 6.68 6.8 7.62s3.71 4.12 6.28 7.06c2.58 2.95 5.38 5.73 6.23 6.19 1.57 0.84 12.7-0.84 16.29-2.46 0.88-0.4 4.66-1.3 8.4-2s7.52-1.6 8.4-2 4.66-1.3 8.4-2 7.52-1.6 8.4-2 4.66-1.3 8.4-2 7.52-1.6 8.4-2 4.66-1.3 8.4-2 7.52-1.6 8.4-2 4.66-1.3 8.4-2 7.52-1.6 8.4-2 4.66-1.3 8.4-2 7.52-1.6 8.4-1.99 3.33-1.06 5.44-1.47l3.83-0.76 28.04 33.71c15.42 18.54 29.53 35.49 31.36 37.68 1.83 2.18 4.7 5.6 6.37 7.6 1.67 1.99 3.83 4.54 4.8 5.65s4.41 5.3 7.64 9.31c7.16 8.86 9.04 10.11 11.51 7.64l1.73-1.74 0.59-65.01 0.59-65.02-2.49-2.09c-1.37-1.15-3.78-2.77-5.35-3.59-1.57-0.83-3.05-1.76-3.28-2.06-0.23-0.31-1.31-1.05-2.4-1.64-2.71-1.48-10.07-5.88-14.16-8.48-3.02-1.91-13.16-8.18-17.42-10.77-0.88-0.53-3.15-1.96-5.04-3.17s-3.71-2.2-4.04-2.2c-0.34 0-1.85-0.93-3.36-2.07-1.52-1.14-3.48-2.4-4.36-2.81-0.88-0.42-3.13-1.74-4.99-2.94-7.55-4.86-14.61-8.98-15.39-8.98-0.45 0-0.82-0.27-0.83-0.6 0-0.33-2.49-2.03-5.52-3.78l-5.52-3.18 1.63-3.19c0.9-1.76 2.26-4.11 3.02-5.23 0.76-1.11 2.51-3.82 3.87-6.02 1.37-2.2 2.82-4.39 3.22-4.88 0.41-0.48 1.32-2 2.03-3.37 1.14-2.2 3.2-5.48 6.23-9.89 0.84-1.23 1.15-1.18 3.77 0.6 1.57 1.07 3.31 1.94 3.87 1.94 0.55 0 1.01 0.32 1.01 0.7 0 1.13 4.42 2.65 6.86 2.36 2.35-0.27 6.09-5.73 7.17-10.46 0.27-1.21 0.83-2.2 1.23-2.2 0.41 0 0.74-0.39 0.74-0.86 0-0.78 1.45-4.04 7.6-17.14 4.74-10.08 6.8-14.8 6.8-15.57 0-0.45 0.36-0.83 0.8-0.83s0.8-0.34 0.8-0.75c0-0.42 1.48-3.93 3.28-7.8 1.8-3.88 4.11-8.85 5.12-11.05 1.02-2.2 3.36-7.24 5.21-11.2 6.42-13.717 7.86-16.826 10.39-22.4 1.4-3.08 3.41-7.381 4.47-9.557s1.93-4.426 1.93-5 0.36-1.043 0.8-1.043 0.8-0.377 0.8-0.837 1.31-3.61 2.92-7c3.66-7.73 4.05-12.423 1.08-12.85-2.1-0.302-12.63 1.326-14 2.165-0.78 0.476-9.86 2.541-25.2 5.73-4.18 0.869-8.14 1.819-8.8 2.112-0.66 0.292-4.98 1.376-9.6 2.41-4.62 1.033-12.18 2.747-16.8 3.808-4.62 1.062-12.36 2.828-17.2 3.925s-12.76 2.936-17.6 4.085c-4.84 1.15-12.58 2.946-17.2 3.991-9.33 2.11-23.32 5.432-28.71 6.816-1.92 0.495-3.64 0.758-3.82 0.584-0.29-0.294 1.02-21.296 3.02-48.441 0.69-9.396 0.65-11.694-0.22-12.548-1.71-1.673-4.85-1.989-7.87-0.792m0.4 17.842c-0.32 5.61-0.74 11.28-0.96 12.6-0.21 1.32-0.84 9.174-1.39 17.452-1.17 17.355-0.78 16.571-9.25 18.559-3.3 0.774-6.36 1.671-6.8 1.994-0.44 0.322-2.66 1.021-4.93 1.554-5.96 1.396-2.71-3.997-30.48 50.641-4.64 9.13-8.76 16.6-9.15 16.6s-1.68-0.66-2.87-1.48c-2.08-1.41-6.12-3.97-10.74-6.79-2.34-1.43-5.44-1.74-6.67-0.66-1.22 1.07-8.42 3.54-8.9 3.06-0.24-0.25-0.04-18.02 0.46-39.49 0.49-21.471 0.89-42.83 0.89-47.463l-0.01-8.423 5.8-1.475c3.19-0.811 6.16-1.744 6.6-2.072 0.44-0.329 2.78-1.047 5.2-1.597s5.48-1.479 6.8-2.064 4.74-1.654 7.6-2.376 5.56-1.588 6-1.925c0.44-0.336 3.31-1.229 6.38-1.984 3.08-0.754 5.96-1.66 6.4-2.012 0.45-0.352 2.8-1.089 5.22-1.639s5.48-1.479 6.8-2.064 4.74-1.654 7.6-2.376 5.56-1.592 6-1.932c0.44-0.341 3.41-1.248 6.61-2.017 3.19-0.768 6-1.717 6.24-2.109 1.64-2.641 2.07 0.028 1.55 9.488m155.6 18.2c0 0.66-0.36 1.2-0.8 1.2s-0.8 0.335-0.8 0.744c0 0.756-2.81 7.132-7.61 17.256-1.46 3.08-3.99 8.48-5.61 12-1.63 3.52-4.39 9.46-6.14 13.2s-3.84 8.24-4.65 10c-1.73 3.78-6.89 14.88-11.35 24.4-3.27 6.99-4.28 9.17-8.65 18.8-10.52 23.18-9.12 21.39-14.15 18.06-2.04-1.35-4.19-2.46-4.78-2.46-0.58 0-1.06-0.3-1.06-0.66s-3.87-3.23-8.6-6.38c-4.73-3.14-10.62-7.08-13.08-8.74-2.47-1.66-5.04-3.38-5.72-3.82s-6.04-4.04-11.92-7.99c-5.87-3.96-11.28-7.56-12-8-0.73-0.45-7.75-5.16-15.6-10.48-7.86-5.32-15.72-10.64-17.48-11.81-1.76-1.18-3.74-2.51-4.4-2.953-0.66-0.442-3.36-2.231-6-3.975-2.64-1.745-5.16-3.458-5.6-3.808-0.44-0.349-2.15-1.463-3.8-2.475-3.81-2.336-3.99-2.099 2.8-3.732 3.19-0.768 6.16-1.664 6.6-1.993 0.44-0.328 3.5-1.187 6.8-1.908s6.72-1.632 7.6-2.024 4.84-1.298 8.8-2.014 7.92-1.616 8.8-2 4.84-1.284 8.8-2 7.92-1.616 8.8-2 4.8-1.298 8.71-2.031c3.91-0.734 7.69-1.64 8.4-2.014s4.53-1.26 8.49-1.969c3.96-0.708 7.92-1.602 8.8-1.986s4.84-1.284 8.8-2 7.92-1.632 8.8-2.035 4.78-1.307 8.68-2.008c3.89-0.701 7.67-1.591 8.4-1.978 0.72-0.387 4.56-1.284 8.52-1.993 3.96-0.708 7.92-1.605 8.8-1.992s5.02-1.323 9.2-2.08c4.18-0.756 7.96-1.65 8.4-1.987 0.72-0.554 3.18-1.171 5.8-1.456 0.55-0.06 1 0.431 1 1.091m-174.19 48.4c2.46 1.76 4.85 3.2 5.33 3.2 0.47 0 0.86 0.366 0.86 0.81 0 0.45 1.26 1.42 2.8 2.15 1.54 0.74 2.8 1.57 2.8 1.86s1.44 1.21 3.19 2.05c1.76 0.84 3.2 1.79 3.2 2.11 0.01 0.32 1.18 1.18 2.61 1.91s2.78 1.57 3 1.85c0.29 0.39 49.7 33.61 61.46 41.34 0.74 0.48 3.45 2.28 6.02 4 2.58 1.72 5.52 3.68 6.55 4.36 2.19 1.45 2.53 0.6-5.23 12.9-2.86 4.54-5.38 8.61-5.6 9.06-0.22 0.44-1.39 2.32-2.6 4.18s-2.2 3.76-2.2 4.2c0 0.45-0.32 0.82-0.7 0.82-0.39 0-1.14 1.04-1.66 2.31-0.53 1.26-2.01 3.31-3.3 4.55-1.29 1.23-2.34 2.57-2.34 2.97 0 0.41-0.81 1.74-1.8 2.97s-3.17 4.25-4.84 6.71l-3.04 4.47-2.16-1.46c-1.19-0.81-3.6-2.36-5.36-3.46-1.76-1.09-4.82-3.01-6.8-4.26-5.72-3.62-8.85-5.58-14.22-8.9-2.76-1.7-6.44-4-8.18-5.1-2.66-1.68-11.08-6.89-17.19-10.63-0.87-0.53-3.09-1.96-4.94-3.17s-3.55-2.2-3.77-2.2c-0.23 0-2.02-1.08-3.98-2.4-1.95-1.32-3.95-2.4-4.44-2.4-0.48 0-0.88-0.3-0.88-0.66 0-0.37-0.99-1.18-2.2-1.8-1.21-0.63-3.69-2.13-5.52-3.34-1.82-1.21-3.68-2.2-4.13-2.2s-0.94-0.28-1.08-0.61c-0.15-0.34-2.97-2.23-6.27-4.19-3.3-1.97-6.36-3.86-6.8-4.22-0.44-0.35-1.47-1.1-2.29-1.66-1.45-1-1.45-1.11 0.09-4.17 1.62-3.24 17.85-34.9 21.9-42.75 1.26-2.42 2.28-4.85 2.29-5.4s0.32-1 0.7-1c0.39 0 1.45-1.8 2.36-4 2.01-4.83 2.65-4.891 8.36-0.8m-64.98 53c0.01 0.11 0.57 3.8 1.24 8.2s2.02 13.94 3.02 21.2c0.99 7.26 2.03 13.74 2.31 14.4 0.27 0.66 1.07 6.6 1.78 13.2 0.7 6.6 1.6 12.9 1.99 14 0.4 1.1 1.31 7.4 2.02 14s1.61 12.72 1.99 13.6 1.33 7.36 2.11 14.4c0.77 7.04 1.64 12.98 1.92 13.2s1.17 6.44 1.98 13.83 1.77 13.62 2.14 13.85c0.87 0.54 0.87 1.92-0.01 1.92-0.37 0-1-0.68-1.4-1.52s-3.29-4.34-6.42-7.8c-3.14-3.45-6.74-7.5-8-8.99-1.27-1.49-3.92-4.44-5.9-6.57-1.98-2.12-4.46-4.86-5.5-6.09-2.47-2.9-11.68-13.33-15.4-17.43-1.59-1.76-3.84-4.28-4.99-5.6-5.01-5.73-10.76-12.1-13.96-15.46-1.9-2-3.958-4.55-4.568-5.68-0.611-1.14-2.477-3.55-4.146-5.38-1.67-1.83-4.836-5.41-7.036-7.97-2.2-2.55-4.903-5.61-6.007-6.79-1.103-1.19-4.954-5.52-8.558-9.64-3.603-4.11-8.036-9.1-9.851-11.08-5.242-5.72-5.295-6.05-1.16-7.21 1.967-0.55 3.576-1.25 3.576-1.57 0-0.31 1.53-1.02 3.4-1.57 1.87-0.56 5.301-1.87 7.624-2.93s4.673-1.92 5.222-1.92 1.708-0.48 2.576-1.07 3.558-1.76 5.978-2.6c2.42-0.83 4.58-1.74 4.8-2.01s1.84-0.94 3.6-1.49c1.76-0.56 3.92-1.45 4.8-2 0.88-0.54 3.58-1.63 6-2.43s5.12-1.9 6-2.45c0.88-0.56 3.13-1.46 5-2.01 1.87-0.54 3.4-1.3 3.4-1.67s0.52-0.67 1.14-0.67c0.63 0 3.42-1.04 6.2-2.3 6.57-2.99 11-4.55 11.09-3.9m11.57 3.16c2.5 2.02 9.09 6.1 10.62 6.58 0.98 0.31 1.78 0.85 1.78 1.19 0 0.35 1.44 1.28 3.2 2.07s3.2 1.69 3.2 2 1.44 1.21 3.2 2 3.2 1.68 3.2 1.97 1.28 1.14 2.84 1.89c1.56 0.74 3.27 1.72 3.8 2.18s2.84 1.98 5.14 3.39c12.45 7.65 20.22 12.45 27.62 17.09 1.65 1.03 4.35 2.72 6 3.74s5.61 3.54 8.79 5.6c3.19 2.06 5.98 3.74 6.22 3.74 0.23 0 3.15 1.8 6.47 4s6.25 4 6.5 4c0.26 0 1.58 0.82 2.94 1.82 3.79 2.78 12.22 7.78 13.13 7.78 0.45 0 0.94 0.27 1.08 0.6 0.28 0.62 9.17 6.6 9.82 6.6 0.2 0 1.97 1.08 3.93 2.4 1.95 1.32 3.78 2.4 4.07 2.4s0.95 0.37 1.48 0.83c1.48 1.27 10.84 7.17 11.37 7.17 0.26 0 0.9 0.36 1.43 0.81 1.64 1.37 6.88 4.7 9.59 6.09 1.42 0.73 2.76 1.58 2.98 1.9s1.56 1.17 2.98 1.9c2.62 1.34 7.9 4.68 9.5 6 0.48 0.4 2.1 1.36 3.6 2.13 1.49 0.77 2.9 1.65 3.12 1.97s1.93 1.36 3.8 2.31c4.49 2.27 4.32 2.74-1.6 4.24-2.75 0.7-8.24 2.17-12.2 3.28-27.3 7.61-34.99 9.64-44.8 11.8-3.96 0.87-7.74 1.8-8.4 2.07-1.38 0.56-14.43 3.59-25.6 5.94-4.18 0.88-8.32 1.94-9.2 2.35-0.88 0.42-3.92 1.16-6.76 1.65s-6.62 1.37-8.4 1.97c-1.78 0.59-5.4 1.46-8.04 1.93s-6.6 1.38-8.8 2.02c-3.61 1.05-8.78 2.31-23.14 5.61-7.96 1.83-7.87 1.95-9.6-13.68-0.83-7.42-1.76-13.85-2.08-14.29s-1.23-6.74-2.03-14c-0.79-7.26-1.67-13.38-1.96-13.6-0.28-0.22-1.17-6.34-1.96-13.6s-1.71-13.56-2.03-14-1.24-6.74-2.03-14-1.68-13.38-1.97-13.6c-0.28-0.22-1.14-6.16-1.9-13.2s-1.7-13.52-2.09-14.4c-0.66-1.5-2.41-15.07-2.41-18.71 0-1.63 1.52-1.6 3.6 0.07m-93.115 45.2c3.693 4.26 7.435 8.51 8.315 9.44 1.595 1.68 6.557 7.33 15.1 17.19 5.734 6.62 6.645 5.27-7.5 11.16-3.3 1.38-7.836 3.39-10.08 4.48-2.244 1.08-4.344 1.97-4.666 1.97-0.658 0-10.318 4.05-15.342 6.44-1.808 0.86-3.507 1.56-3.776 1.56s-2.389 0.86-4.712 1.92c-9.447 4.29-18.35 7.82-18.74 7.43-0.435-0.43 0.715-3.75 1.301-3.75 0.329 0 1.236-1.71 2.016-3.8s1.864-4.34 2.41-5 1.469-2.55 2.051-4.2c0.583-1.65 1.347-3 1.699-3 0.351 0 0.639-0.36 0.639-0.8s2.34-5.62 5.2-11.51 5.2-11.11 5.2-11.6 0.324-0.89 0.72-0.89c0.395 0 1.367-1.8 2.158-4s1.727-4 2.08-4 0.642-0.34 0.642-0.76c0-1.35 7.262-16.04 7.927-16.04 0.353 0 3.664 3.49 7.358 7.76m228.84 10.51c0.15 0.37 2.79 2.16 5.87 3.97 3.08 1.82 6 3.65 6.49 4.06s2.29 1.51 4 2.44c1.71 0.92 5.4 3.11 8.19 4.87 2.8 1.75 5.38 3.19 5.74 3.19 0.37 0 1.16 0.49 1.76 1.1 0.6 0.6 2.16 1.69 3.46 2.42 1.3 0.74 3.98 2.39 5.96 3.68s5.22 3.27 7.2 4.39c6.17 3.51 9.1 5.33 11.09 6.9 1.06 0.83 2.22 1.51 2.58 1.51s2.25 1.08 4.21 2.4c1.95 1.32 3.95 2.4 4.44 2.4 0.48 0 0.88 0.29 0.88 0.65s1.17 1.28 2.6 2.04c1.43 0.77 4.39 2.43 6.57 3.69l3.97 2.3-2.37 0.57c-1.3 0.32-4.89 1.26-7.97 2.11-3.08 0.84-7.25 1.93-9.26 2.42l-3.67 0.88-12.7-7.93c-6.99-4.36-13.07-8.08-13.52-8.26s-2.23-1.35-3.95-2.6c-1.73-1.25-3.63-2.27-4.22-2.27s-1.08-0.27-1.08-0.6-1.84-1.68-4.1-3c-2.25-1.32-4.92-2.94-5.93-3.6-1-0.66-3.57-2.25-5.7-3.53-3.38-2.03-11.01-6.78-15.89-9.88-0.87-0.55-2.39-1.42-3.38-1.92-2.2-1.13-2.27-2.28-0.29-4.56 0.83-0.96 2.72-3.71 4.2-6.11 2.5-4.05 4.18-5.35 4.82-3.73m89.36 89.13c-0.18 52.46-0.93 81.15-2.09 79.78-1.57-1.84-15.04-18.04-16.04-19.28-0.49-0.6-1.8-2.18-2.9-3.5-1.11-1.32-5.31-6.36-9.32-11.2-8.13-9.8-9.49-11.44-19.96-24-4.04-4.84-8.54-10.24-10-12s-5.62-6.72-9.23-11.03c-3.61-4.3-6.37-8.02-6.14-8.25 0.24-0.23 2.71-0.94 5.51-1.58 2.79-0.64 5.8-1.5 6.68-1.92 0.88-0.43 4.12-1.33 7.2-2 3.08-0.68 6.32-1.56 7.2-1.96 0.88-0.41 4.3-1.36 7.6-2.12s6.18-1.63 6.4-1.92c0.22-0.3 3.46-1.18 7.2-1.97s7.16-1.71 7.6-2.03c0.44-0.33 3.5-1.24 6.8-2.02s6.36-1.7 6.8-2.03c0.72-0.56 3.18-1.17 5.8-1.46 0.79-0.09 0.98 6.43 0.89 30.49"/>
  <path id="path4" d="m224.8 11.558c-1.54 0.611-7.12 2.42-12.4 4.02s-11.04 3.397-12.8 3.994c-1.76 0.596-6.98 2.228-11.6 3.625-8.75 2.647-17.58 5.382-24.4 7.565-11.44 3.659-17.36 5.464-22.8 6.943-3.3 0.899-6.36 1.913-6.8 2.254s-1.7 0.837-2.8 1.101c-3.9 0.937-3.92 1.179-4.8 44.309-0.45 22.351-1.03 45.441-1.3 51.311l-0.47 10.69-3.72 1.56c-2.04 0.85-5.19 2.26-7 3.11-1.81 0.86-3.58 1.56-3.95 1.56-0.36 0-2.12 0.7-3.91 1.54-1.79 0.85-6.67 2.87-10.85 4.48-4.18 1.62-9.11 3.62-10.956 4.46s-3.545 1.52-3.776 1.52c-0.232 0-2.388 0.9-4.793 2s-4.579 2-4.832 2-1.987 0.68-3.852 1.52-6.562 2.72-10.437 4.2l-7.046 2.68-8.496 17.2c-4.673 9.46-13.863 28.18-20.422 41.6s-12.435 25.36-13.058 26.52c-1.646 3.09-1.427 6.07 0.523 7.11 1.78 0.95 10.345-1.15 10.345-2.54 0-0.38 0.555-0.69 1.233-0.69 0.679 0 3.469-1.04 6.2-2.3 2.732-1.27 5.867-2.56 6.967-2.88s2.72-1.02 3.6-1.55 3.4-1.63 5.6-2.44c2.2-0.82 4.18-1.7 4.4-1.96 0.22-0.27 2.38-1.17 4.8-2.01s5.12-1.97 6-2.51 2.5-1.24 3.6-1.56c1.925-0.56 8.192-3.23 13.2-5.62 1.32-0.63 3.989-1.7 5.931-2.37s3.922-1.52 4.4-1.89 2.774-1.34 5.101-2.16l4.233-1.49 4.167 4.71c2.288 2.59 6.148 6.92 8.568 9.62s6.74 7.57 9.6 10.83 6.1 6.89 7.2 8.08c1.1 1.18 3.8 4.2 6 6.71s4.38 4.98 4.84 5.48c1.61 1.74 8.79 9.82 13.96 15.7 2.86 3.25 5.92 6.68 6.8 7.62s3.71 4.12 6.28 7.06c2.58 2.95 5.38 5.73 6.23 6.19 1.57 0.84 12.7-0.84 16.29-2.46 0.88-0.4 4.66-1.3 8.4-2s7.52-1.6 8.4-2 4.66-1.3 8.4-2 7.52-1.6 8.4-2 4.66-1.3 8.4-2 7.52-1.6 8.4-2 4.66-1.3 8.4-2 7.52-1.6 8.4-2 4.66-1.3 8.4-2 7.52-1.6 8.4-2 4.66-1.3 8.4-2 7.52-1.6 8.4-1.99 3.33-1.06 5.44-1.47l3.83-0.76 28.04 33.71c15.42 18.54 29.53 35.49 31.36 37.68 1.83 2.18 4.7 5.6 6.37 7.6 1.67 1.99 3.83 4.54 4.8 5.65s4.41 5.3 7.64 9.31c7.16 8.86 9.04 10.11 11.51 7.64l1.73-1.74 0.59-65.01 0.59-65.02-2.49-2.09c-1.37-1.15-3.78-2.77-5.35-3.59-1.57-0.83-3.05-1.76-3.28-2.06-0.23-0.31-1.31-1.05-2.4-1.64-2.71-1.48-10.07-5.88-14.16-8.48-3.02-1.91-13.16-8.18-17.42-10.77-0.88-0.53-3.15-1.96-5.04-3.17s-3.71-2.2-4.04-2.2c-0.34 0-1.85-0.93-3.36-2.07-1.52-1.14-3.48-2.4-4.36-2.81-0.88-0.42-3.13-1.74-4.99-2.94-7.55-4.86-14.61-8.98-15.39-8.98-0.45 0-0.82-0.27-0.83-0.6 0-0.33-2.49-2.03-5.52-3.78l-5.52-3.18 1.63-3.19c0.9-1.76 2.26-4.11 3.02-5.23 0.76-1.11 2.51-3.82 3.87-6.02 1.37-2.2 2.82-4.39 3.22-4.88 0.41-0.48 1.32-2 2.03-3.37 1.14-2.2 3.2-5.48 6.23-9.89 0.84-1.23 1.15-1.18 3.77 0.6 1.57 1.07 3.31 1.94 3.87 1.94 0.55 0 1.01 0.32 1.01 0.7 0 1.13 4.42 2.65 6.86 2.36 2.35-0.27 6.09-5.73 7.17-10.46 0.27-1.21 0.83-2.2 1.23-2.2 0.41 0 0.74-0.39 0.74-0.86 0-0.78 1.45-4.04 7.6-17.14 4.74-10.08 6.8-14.8 6.8-15.57 0-0.45 0.36-0.83 0.8-0.83s0.8-0.34 0.8-0.75c0-0.42 1.48-3.93 3.28-7.8 1.8-3.88 4.11-8.85 5.12-11.05 1.02-2.2 3.36-7.24 5.21-11.2 6.42-13.717 7.86-16.826 10.39-22.4 1.4-3.08 3.41-7.381 4.47-9.557s1.93-4.426 1.93-5 0.36-1.043 0.8-1.043 0.8-0.377 0.8-0.837 1.31-3.61 2.92-7c3.66-7.73 4.05-12.423 1.08-12.85-2.1-0.302-12.63 1.326-14 2.165-0.78 0.476-9.86 2.541-25.2 5.73-4.18 0.869-8.14 1.819-8.8 2.112-0.66 0.292-4.98 1.376-9.6 2.41-4.62 1.033-12.18 2.747-16.8 3.808-4.62 1.062-12.36 2.828-17.2 3.925s-12.76 2.936-17.6 4.085c-4.84 1.15-12.58 2.946-17.2 3.991-9.33 2.11-23.32 5.432-28.71 6.816-1.92 0.495-3.64 0.758-3.82 0.584-0.29-0.294 1.02-21.296 3.02-48.441 0.69-9.396 0.65-11.694-0.22-12.548-1.71-1.673-4.85-1.989-7.87-0.792m0.4 17.842c-0.32 5.61-0.74 11.28-0.96 12.6-0.21 1.32-0.84 9.174-1.39 17.452-1.17 17.355-0.78 16.571-9.25 18.559-3.3 0.774-6.36 1.671-6.8 1.994-0.44 0.322-2.66 1.021-4.93 1.554-5.96 1.396-2.71-3.997-30.48 50.641-4.64 9.13-8.76 16.6-9.15 16.6s-1.68-0.66-2.87-1.48c-2.08-1.41-6.12-3.97-10.74-6.79-2.34-1.43-5.44-1.74-6.67-0.66-1.22 1.07-8.42 3.54-8.9 3.06-0.24-0.25-0.04-18.02 0.46-39.49 0.49-21.471 0.89-42.83 0.89-47.463l-0.01-8.423 5.8-1.475c3.19-0.811 6.16-1.744 6.6-2.072 0.44-0.329 2.78-1.047 5.2-1.597s5.48-1.479 6.8-2.064 4.74-1.654 7.6-2.376 5.56-1.588 6-1.925c0.44-0.336 3.31-1.229 6.38-1.984 3.08-0.754 5.96-1.66 6.4-2.012 0.45-0.352 2.8-1.089 5.22-1.639s5.48-1.479 6.8-2.064 4.74-1.654 7.6-2.376 5.56-1.592 6-1.932c0.44-0.341 3.41-1.248 6.61-2.017 3.19-0.768 6-1.717 6.24-2.109 1.64-2.641 2.07 0.028 1.55 9.488m155.6 18.2c0 0.66-0.36 1.2-0.8 1.2s-0.8 0.335-0.8 0.744c0 0.756-2.81 7.132-7.61 17.256-1.46 3.08-3.99 8.48-5.61 12-1.63 3.52-4.39 9.46-6.14 13.2s-3.84 8.24-4.65 10c-1.73 3.78-6.89 14.88-11.35 24.4-3.27 6.99-4.28 9.17-8.65 18.8-10.52 23.18-9.12 21.39-14.15 18.06-2.04-1.35-4.19-2.46-4.78-2.46-0.58 0-1.06-0.3-1.06-0.66s-3.87-3.23-8.6-6.38c-4.73-3.14-10.62-7.08-13.08-8.74-2.47-1.66-5.04-3.38-5.72-3.82s-6.04-4.04-11.92-7.99c-5.87-3.96-11.28-7.56-12-8-0.73-0.45-7.75-5.16-15.6-10.48-7.86-5.32-15.72-10.64-17.48-11.81-1.76-1.18-3.74-2.51-4.4-2.953-0.66-0.442-3.36-2.231-6-3.975-2.64-1.745-5.16-3.458-5.6-3.808-0.44-0.349-2.15-1.463-3.8-2.475-3.81-2.336-3.99-2.099 2.8-3.732 3.19-0.768 6.16-1.664 6.6-1.993 0.44-0.328 3.5-1.187 6.8-1.908s6.72-1.632 7.6-2.024 4.84-1.298 8.8-2.014 7.92-1.616 8.8-2 4.84-1.284 8.8-2 7.92-1.616 8.8-2 4.8-1.298 8.71-2.031c3.91-0.734 7.69-1.64 8.4-2.014s4.53-1.26 8.49-1.969c3.96-0.708 7.92-1.602 8.8-1.986s4.84-1.284 8.8-2 7.92-1.632 8.8-2.035 4.78-1.307 8.68-2.008c3.89-0.701 7.67-1.591 8.4-1.978 0.72-0.387 4.56-1.284 8.52-1.993 3.96-0.708 7.92-1.605 8.8-1.992s5.02-1.323 9.2-2.08c4.18-0.756 7.96-1.65 8.4-1.987 0.72-0.554 3.18-1.171 5.8-1.456 0.55-0.06 1 0.431 1 1.091m-174.19 48.4c2.46 1.76 4.85 3.2 5.33 3.2 0.47 0 0.86 0.366 0.86 0.81 0 0.45 1.26 1.42 2.8 2.15 1.54 0.74 2.8 1.57 2.8 1.86s1.44 1.21 3.19 2.05c1.76 0.84 3.2 1.79 3.2 2.11 0.01 0.32 1.18 1.18 2.61 1.91s2.78 1.57 3 1.85c0.29 0.39 49.7 33.61 61.46 41.34 0.74 0.48 3.45 2.28 6.02 4 2.58 1.72 5.52 3.68 6.55 4.36 2.19 1.45 2.53 0.6-5.23 12.9-2.86 4.54-5.38 8.61-5.6 9.06-0.22 0.44-1.39 2.32-2.6 4.18s-2.2 3.76-2.2 4.2c0 0.45-0.32 0.82-0.7 0.82-0.39 0-1.14 1.04-1.66 2.31-0.53 1.26-2.01 3.31-3.3 4.55-1.29 1.23-2.34 2.57-2.34 2.97 0 0.41-0.81 1.74-1.8 2.97s-3.17 4.25-4.84 6.71l-3.04 4.47-2.16-1.46c-1.19-0.81-3.6-2.36-5.36-3.46-1.76-1.09-4.82-3.01-6.8-4.26-5.72-3.62-8.85-5.58-14.22-8.9-2.76-1.7-6.44-4-8.18-5.1-2.66-1.68-11.08-6.89-17.19-10.63-0.87-0.53-3.09-1.96-4.94-3.17s-3.55-2.2-3.77-2.2c-0.23 0-2.02-1.08-3.98-2.4-1.95-1.32-3.95-2.4-4.44-2.4-0.48 0-0.88-0.3-0.88-0.66 0-0.37-0.99-1.18-2.2-1.8-1.21-0.63-3.69-2.13-5.52-3.34-1.82-1.21-3.68-2.2-4.13-2.2s-0.94-0.28-1.08-0.61c-0.15-0.34-2.97-2.23-6.27-4.19-3.3-1.97-6.36-3.86-6.8-4.22-0.44-0.35-1.47-1.1-2.29-1.66-1.45-1-1.45-1.11 0.09-4.17 1.62-3.24 17.85-34.9 21.9-42.75 1.26-2.42 2.28-4.85 2.29-5.4s0.32-1 0.7-1c0.39 0 1.45-1.8 2.36-4 2.01-4.83 2.65-4.891 8.36-0.8m-64.98 53c0.01 0.11 0.57 3.8 1.24 8.2s2.02 13.94 3.02 21.2c0.99 7.26 2.03 13.74 2.31 14.4 0.27 0.66 1.07 6.6 1.78 13.2 0.7 6.6 1.6 12.9 1.99 14 0.4 1.1 1.31 7.4 2.02 14s1.61 12.72 1.99 13.6 1.33 7.36 2.11 14.4c0.77 7.04 1.64 12.98 1.92 13.2s1.17 6.44 1.98 13.83 1.77 13.62 2.14 13.85c0.87 0.54 0.87 1.92-0.01 1.92-0.37 0-1-0.68-1.4-1.52s-3.29-4.34-6.42-7.8c-3.14-3.45-6.74-7.5-8-8.99-1.27-1.49-3.92-4.44-5.9-6.57-1.98-2.12-4.46-4.86-5.5-6.09-2.47-2.9-11.68-13.33-15.4-17.43-1.59-1.76-3.84-4.28-4.99-5.6-5.01-5.73-10.76-12.1-13.96-15.46-1.9-2-3.958-4.55-4.568-5.68-0.611-1.14-2.477-3.55-4.146-5.38-1.67-1.83-4.836-5.41-7.036-7.97-2.2-2.55-4.903-5.61-6.007-6.79-1.103-1.19-4.954-5.52-8.558-9.64-3.603-4.11-8.036-9.1-9.851-11.08-5.242-5.72-5.295-6.05-1.16-7.21 1.967-0.55 3.576-1.25 3.576-1.57 0-0.31 1.53-1.02 3.4-1.57 1.87-0.56 5.301-1.87 7.624-2.93s4.673-1.92 5.222-1.92 1.708-0.48 2.576-1.07 3.558-1.76 5.978-2.6c2.42-0.83 4.58-1.74 4.8-2.01s1.84-0.94 3.6-1.49c1.76-0.56 3.92-1.45 4.8-2 0.88-0.54 3.58-1.63 6-2.43s5.12-1.9 6-2.45c0.88-0.56 3.13-1.46 5-2.01 1.87-0.54 3.4-1.3 3.4-1.67s0.52-0.67 1.14-0.67c0.63 0 3.42-1.04 6.2-2.3 6.57-2.99 11-4.55 11.09-3.9m11.57 3.16c2.5 2.02 9.09 6.1 10.62 6.58 0.98 0.31 1.78 0.85 1.78 1.19 0 0.35 1.44 1.28 3.2 2.07s3.2 1.69 3.2 2 1.44 1.21 3.2 2 3.2 1.68 3.2 1.97 1.28 1.14 2.84 1.89c1.56 0.74 3.27 1.72 3.8 2.18s2.84 1.98 5.14 3.39c12.45 7.65 20.22 12.45 27.62 17.09 1.65 1.03 4.35 2.72 6 3.74s5.61 3.54 8.79 5.6c3.19 2.06 5.98 3.74 6.22 3.74 0.23 0 3.15 1.8 6.47 4s6.25 4 6.5 4c0.26 0 1.58 0.82 2.94 1.82 3.79 2.78 12.22 7.78 13.13 7.78 0.45 0 0.94 0.27 1.08 0.6 0.28 0.62 9.17 6.6 9.82 6.6 0.2 0 1.97 1.08 3.93 2.4 1.95 1.32 3.78 2.4 4.07 2.4s0.95 0.37 1.48 0.83c1.48 1.27 10.84 7.17 11.37 7.17 0.26 0 0.9 0.36 1.43 0.81 1.64 1.37 6.88 4.7 9.59 6.09 1.42 0.73 2.76 1.58 2.98 1.9s1.56 1.17 2.98 1.9c2.62 1.34 7.9 4.68 9.5 6 0.48 0.4 2.1 1.36 3.6 2.13 1.49 0.77 2.9 1.65 3.12 1.97s1.93 1.36 3.8 2.31c4.49 2.27 4.32 2.74-1.6 4.24-2.75 0.7-8.24 2.17-12.2 3.28-27.3 7.61-34.99 9.64-44.8 11.8-3.96 0.87-7.74 1.8-8.4 2.07-1.38 0.56-14.43 3.59-25.6 5.94-4.18 0.88-8.32 1.94-9.2 2.35-0.88 0.42-3.92 1.16-6.76 1.65s-6.62 1.37-8.4 1.97c-1.78 0.59-5.4 1.46-8.04 1.93s-6.6 1.38-8.8 2.02c-3.61 1.05-8.78 2.31-23.14 5.61-7.96 1.83-7.87 1.95-9.6-13.68-0.83-7.42-1.76-13.85-2.08-14.29s-1.23-6.74-2.03-14c-0.79-7.26-1.67-13.38-1.96-13.6-0.28-0.22-1.17-6.34-1.96-13.6s-1.71-13.56-2.03-14-1.24-6.74-2.03-14-1.68-13.38-1.97-13.6c-0.28-0.22-1.14-6.16-1.9-13.2s-1.7-13.52-2.09-14.4c-0.66-1.5-2.41-15.07-2.41-18.71 0-1.63 1.52-1.6 3.6 0.07m-93.115 45.2c3.693 4.26 7.435 8.51 8.315 9.44 1.595 1.68 6.557 7.33 15.1 17.19 5.734 6.62 6.645 5.27-7.5 11.16-3.3 1.38-7.836 3.39-10.08 4.48-2.244 1.08-4.344 1.97-4.666 1.97-0.658 0-10.318 4.05-15.342 6.44-1.808 0.86-3.507 1.56-3.776 1.56s-2.389 0.86-4.712 1.92c-9.447 4.29-18.35 7.82-18.74 7.43-0.435-0.43 0.715-3.75 1.301-3.75 0.329 0 1.236-1.71 2.016-3.8s1.864-4.34 2.41-5 1.469-2.55 2.051-4.2c0.583-1.65 1.347-3 1.699-3 0.351 0 0.639-0.36 0.639-0.8s2.34-5.62 5.2-11.51 5.2-11.11 5.2-11.6 0.324-0.89 0.72-0.89c0.395 0 1.367-1.8 2.158-4s1.727-4 2.08-4 0.642-0.34 0.642-0.76c0-1.35 7.262-16.04 7.927-16.04 0.353 0 3.664 3.49 7.358 7.76m228.84 10.51c0.15 0.37 2.79 2.16 5.87 3.97 3.08 1.82 6 3.65 6.49 4.06s2.29 1.51 4 2.44c1.71 0.92 5.4 3.11 8.19 4.87 2.8 1.75 5.38 3.19 5.74 3.19 0.37 0 1.16 0.49 1.76 1.1 0.6 0.6 2.16 1.69 3.46 2.42 1.3 0.74 3.98 2.39 5.96 3.68s5.22 3.27 7.2 4.39c6.17 3.51 9.1 5.33 11.09 6.9 1.06 0.83 2.22 1.51 2.58 1.51s2.25 1.08 4.21 2.4c1.95 1.32 3.95 2.4 4.44 2.4 0.48 0 0.88 0.29 0.88 0.65s1.17 1.28 2.6 2.04c1.43 0.77 4.39 2.43 6.57 3.69l3.97 2.3-2.37 0.57c-1.3 0.32-4.89 1.26-7.97 2.11-3.08 0.84-7.25 1.93-9.26 2.42l-3.67 0.88-12.7-7.93c-6.99-4.36-13.07-8.08-13.52-8.26s-2.23-1.35-3.95-2.6c-1.73-1.25-3.63-2.27-4.22-2.27s-1.08-0.27-1.08-0.6-1.84-1.68-4.1-3c-2.25-1.32-4.92-2.94-5.93-3.6-1-0.66-3.57-2.25-5.7-3.53-3.38-2.03-11.01-6.78-15.89-9.88-0.87-0.55-2.39-1.42-3.38-1.92-2.2-1.13-2.27-2.28-0.29-4.56 0.83-0.96 2.72-3.71 4.2-6.11 2.5-4.05 4.18-5.35 4.82-3.73m89.36 89.13c-0.18 52.46-0.93 81.15-2.09 79.78-1.57-1.84-15.04-18.04-16.04-19.28-0.49-0.6-1.8-2.18-2.9-3.5-1.11-1.32-5.31-6.36-9.32-11.2-8.13-9.8-9.49-11.44-19.96-24-4.04-4.84-8.54-10.24-10-12s-5.62-6.72-9.23-11.03c-3.61-4.3-6.37-8.02-6.14-8.25 0.24-0.23 2.71-0.94 5.51-1.58 2.79-0.64 5.8-1.5 6.68-1.92 0.88-0.43 4.12-1.33 7.2-2 3.08-0.68 6.32-1.56 7.2-1.96 0.88-0.41 4.3-1.36 7.6-2.12s6.18-1.63 6.4-1.92c0.22-0.3 3.46-1.18 7.2-1.97s7.16-1.71 7.6-2.03c0.44-0.33 3.5-1.24 6.8-2.02s6.36-1.7 6.8-2.03c0.72-0.56 3.18-1.17 5.8-1.46 0.79-0.09 0.98 6.43 0.89 30.49"/>
 </g>
</svg>
